# This file uses meters as units for non-parametric coordinates.

mtllib Blackfungus.mtl
g default
v -360.079483 64.030975 49.601853
v -355.566139 65.654205 48.361306
v -357.714248 63.587460 39.779171
v -356.319099 63.754337 42.016159
v -360.430763 63.914188 43.234818
v -360.527130 63.824390 44.392002
v -360.163215 65.470703 39.747265
v -362.877120 64.440231 42.009442
v -362.590492 64.114334 42.975598
v -364.090301 64.322144 48.214855
v -356.527313 64.922485 42.153862
v -360.438865 64.569305 44.507386
v -357.495948 64.222786 39.867710
v -359.918167 66.007629 40.067299
v -362.802261 65.074234 42.101933
v -360.337554 64.617348 43.275029
v -362.496971 64.799416 42.937184
v -354.911476 66.374603 47.261902
v -354.390251 65.984589 42.000927
v -356.515296 65.245232 38.665066
v -359.004669 66.441650 39.303425
v -360.238685 67.272972 39.655571
v -361.302070 67.610703 39.620259
v -364.897651 66.508186 41.639366
v -365.606925 66.630569 42.741616
v -364.255035 64.803688 46.637490
v -354.113395 66.148933 43.346997
v -361.252868 67.740685 39.743809
v -364.134819 64.571854 48.383030
vt 0.608253 0.562500
vt 0.383373 0.172997
vt 0.500000 0.625000
vt 0.383373 0.172997
vt 0.608253 0.562500
vt 0.500000 0.625000
vt 0.066987 0.250000
vt 0.933013 0.250000
vt 0.616627 0.172997
vt 0.849880 0.297997
vt 0.824759 0.687500
vt 0.724880 0.764503
vt 0.019933 0.363599
vt 0.372281 0.016815
vt 0.616627 0.172997
vt 0.635192 0.019432
vt 0.855878 0.149476
vt 0.999783 0.501649
vt 0.849880 0.297997
vt 0.931038 0.752573
vt 0.824759 0.687500
vt 0.853282 0.853366
vt 0.724880 0.764503
vt 0.500000 1.000000
vt 0.370590 0.982963
vt 0.146447 0.853553
vt 0.017037 0.370590
vt 0.250000 0.066987
vt 0.635192 0.019432
vt 0.982963 0.370591
vt 0.982963 0.370591
vt 0.933013 0.750000
vt 0.370590 0.982963
vn -0.278209 0.960513 -0.003931
vn -0.315415 0.948754 -0.019457
vn -0.090961 0.995388 0.030475
vn -0.109688 0.993268 0.037258
vn 0.108176 0.982838 0.149423
vn 0.088860 0.987341 0.131383
vn 0.310872 0.856565 0.411892
vn 0.364279 0.878623 0.308742
vn 0.222672 0.965178 0.137288
vn 0.125829 0.987328 0.096703
vn 0.361963 -0.920558 0.146819
vn 0.121110 -0.986270 0.112266
vn 0.082833 -0.992423 0.090749
vn 0.430588 -0.902248 0.023286
vn -0.161827 -0.969472 -0.184218
vn -0.186199 -0.961194 -0.203558
vn -0.420901 -0.846435 -0.326174
vn -0.317196 -0.856729 -0.406698
vn -0.327145 -0.941869 -0.076546
vn -0.198548 -0.979726 0.026742
vn -0.532810 0.843237 -0.071171
vn -0.525953 0.847886 -0.066806
vn -0.506835 0.860676 0.048526
vn -0.531084 0.843883 0.076239
vn -0.531084 0.843882 0.076239
vn 0.423924 0.483075 0.766111
vn 0.423924 0.483075 0.766111
vn 0.423924 0.483075 0.766111
vn 0.423924 0.483075 0.766111
vn 0.380728 0.371920 0.846594
vn 0.380728 0.371920 0.846594
vn 0.307421 0.519379 0.797332
vn 0.316925 0.502074 0.804661
vn 0.303675 0.526068 0.794376
vn 0.303675 0.526068 0.794376
vn 0.507707 0.844130 0.172274
vn 0.507707 0.844130 0.172274
vn 0.435767 0.876162 0.206027
vn 0.435767 0.876162 0.206027
vn 0.767942 -0.631144 0.109191
vn 0.758529 -0.650842 -0.032218
vn 0.687013 -0.648116 -0.328571
vn 0.687013 -0.648116 -0.328571
vn -0.288818 -0.283028 -0.914592
vn -0.354685 -0.336803 -0.872217
vn -0.267339 -0.242562 -0.932574
vn -0.288818 -0.283028 -0.914592
vn -0.394143 -0.375213 -0.838968
vn -0.163790 -0.054985 -0.984962
vn -0.414494 -0.407342 -0.813798
vn -0.414494 -0.407342 -0.813798
vn -0.645375 -0.736039 -0.204296
vn -0.645375 -0.736039 -0.204296
vn -0.633609 -0.759953 -0.144950
vn -0.633609 -0.759953 -0.144950
vn 0.154850 -0.983985 0.088286
vn 0.154850 -0.983985 0.088286
vn 0.154850 -0.983985 0.088286
vn 0.223537 0.625714 -0.747337
vn -0.504260 0.687519 -0.522531
vn -0.504260 0.687519 -0.522531
vn -0.504260 0.687519 -0.522531
vn -0.978595 -0.201750 0.040599
vn -0.978595 -0.201750 0.040599
vn -0.978595 -0.201750 0.040599
vn -0.305378 -0.568796 0.763685
s 1
g F_muer_19 F_Blackfungu F_Vagetables
usemtl aiStandardSurface12SG
f 2/27/1 11/2/2 12/3/3 1/26/4
f 11/2/2 13/9/5 16/1/6 12/3/3
f 16/1/6 13/9/5 14/10/7 15/11/8
f 12/3/3 16/1/6 15/11/8 17/12/9
f 1/26/4 12/3/3 17/12/9 29/33/10
s 2
f 2/13/11 1/26/12 6/6/13 4/4/14
f 4/4/14 6/6/13 5/5/15 3/15/16
f 5/5/15 8/21/17 7/19/18 3/15/16
f 6/6/13 9/23/19 8/21/17 5/5/15
f 1/26/12 10/25/20 9/23/19 6/6/13
s 1
f 18/7/21 27/28/22 11/2/2 2/27/1
f 11/2/2 27/28/22 19/14/23
f 19/14/23 20/29/24 13/9/25 11/2/2
s off
f 13/9/26 20/16/27 21/17/28 14/10/29
s 3
f 21/17/30 22/8/31 28/31/32 14/10/33
f 14/10/33 28/31/32 24/32/34 15/11/35
s 1
f 15/11/8 24/32/36 25/22/37 17/12/9
f 17/12/9 25/22/38 26/24/39 29/33/10
s 2
f 18/7/40 2/13/11 4/4/14 19/14/41
f 19/14/41 4/4/14 3/15/42 20/16/43
s 4
f 3/15/44 7/19/45 21/17/46 20/16/47
f 21/17/46 7/19/45 23/18/48 22/8/49
f 7/19/45 8/21/50 24/20/51 23/18/48
s 2
f 8/21/17 9/23/19 25/22/52 24/20/53
f 9/23/19 10/25/20 26/24/54 25/22/55
s off
f 18/7/56 19/14/57 27/28/58
s 4
f 22/8/49 23/30/48 28/31/59
s off
f 23/30/60 24/32/61 28/31/62
f 26/24/63 10/25/64 29/33/65
s 2
f 10/25/20 1/26/12 29/33/66
g default
v -354.892135 67.007324 34.979580
v -356.091209 65.975060 35.455593
v -354.983863 69.871613 32.311531
v -356.295616 68.723068 33.267872
v -361.620658 69.268684 35.782059
v -361.298423 66.427719 38.667475
v -353.919158 65.171371 39.081127
v -357.450912 62.984436 40.994953
v -352.512664 66.220253 36.765787
v -352.332427 68.513153 33.601813
v -354.996307 70.619026 32.581002
v -356.232185 69.251678 33.714114
v -356.298286 66.494942 35.906666
v -355.134323 67.549088 35.329956
v -353.990303 65.739197 39.449494
v -352.398078 66.731628 37.151909
v -352.320594 69.154205 33.869341
v -356.602569 71.238190 31.596482
v -360.806724 71.412659 33.387705
v -354.558403 65.235352 42.421517
v -350.546112 65.712898 41.370934
v -348.068145 67.090858 38.536232
v -348.414794 67.954872 35.145497
v -349.719146 69.377586 34.341950
v -352.294456 70.241142 31.459107
v -355.253669 70.819214 31.488524
v -361.567543 69.471680 36.018824
v -350.569168 66.040604 41.411282
v -350.923690 70.430840 33.151936
vt 0.391747 0.562500
vt 0.391747 0.437500
vt 0.175240 0.687500
vt 0.175240 0.687500
vt 0.391747 0.437500
vt 0.391747 0.562500
vt 0.716506 0.500000
vt 0.375000 0.841506
vt 0.933013 0.250000
vt 0.500000 1.000000
vt 0.158494 0.562500
vt 0.716506 0.500000
vt 0.608253 0.687500
vt 0.375000 0.841506
vt 0.064563 0.743517
vt 0.001270 0.498292
vt 0.158494 0.562500
vt 0.066987 0.250000
vt 0.146497 0.148533
vt 0.370591 0.017037
vt 0.759125 0.074836
vt 0.982571 0.629553
vt 0.608253 0.687500
vt 0.853464 0.853492
vt 0.627451 0.983221
vt 0.250447 0.930011
vt 0.066987 0.750000
vt 0.017037 0.629410
vt 0.146447 0.146447
vt 0.146446 0.146447
vt 0.370591 0.017037
vt 0.757626 0.072839
vt 0.982963 0.629410
vt 0.982963 0.629410
vt 0.629409 0.982963
vt 0.370590 0.982963
vn 0.130967 0.757335 0.639759
vn 0.256294 0.670867 0.695881
vn 0.340152 0.643055 0.686132
vn 0.192035 0.729892 0.656034
vn -0.119815 0.770373 0.626235
vn -0.081008 0.721905 0.687234
vn -0.171298 0.916600 0.361249
vn -0.062193 0.865258 0.497454
vn -0.126011 0.903731 0.409134
vn -0.079809 0.784713 0.614700
vn -0.196761 -0.783980 -0.588779
vn -0.277133 -0.759516 -0.588500
vn -0.401854 -0.619536 -0.674306
vn -0.313451 -0.631166 -0.709491
vn 0.137634 -0.768757 -0.624555
vn 0.097759 -0.719678 -0.687392
vn 0.144536 -0.947914 -0.283845
vn -0.021070 -0.919061 -0.393552
vn 0.223491 -0.892097 -0.392703
vn 0.203235 -0.766054 -0.609800
vn -0.029985 0.823358 0.566730
vn -0.029985 0.823358 0.566730
vn -0.029985 0.823358 0.566730
vn -0.029985 0.823358 0.566730
vn 0.297371 0.723584 0.622894
vn 0.297371 0.723584 0.622894
vn -0.408539 0.909563 0.076106
vn -0.242555 0.950557 0.193929
vn -0.114439 0.931112 0.346314
vn -0.061583 0.878490 0.473775
vn -0.196434 0.486426 0.851354
vn -0.196434 0.486426 0.851354
vn -0.531343 0.774406 0.343469
vn -0.531343 0.774406 0.343469
vn -0.531343 0.774406 0.343469
vn 0.259559 0.911885 0.317954
vn 0.259559 0.911885 0.317954
vn 0.259559 0.911885 0.317954
vn 0.259559 0.911885 0.317954
vn -0.152900 -0.594263 -0.789604
vn -0.152900 -0.594263 -0.789604
vn -0.152900 -0.594263 -0.789604
vn -0.152900 -0.594263 -0.789603
vn -0.369570 -0.587796 -0.719662
vn -0.369570 -0.587796 -0.719662
vn 0.362004 -0.928103 0.087052
vn 0.310528 -0.940861 -0.135476
vn 0.245486 -0.911950 -0.328761
vn 0.226533 -0.853045 -0.470103
vn 0.389932 -0.540450 -0.745565
vn 0.389932 -0.540450 -0.745565
vn -0.107608 -0.742349 -0.661315
vn -0.107608 -0.742350 -0.661315
vn -0.107608 -0.742349 -0.661315
vn -0.107608 -0.742349 -0.661315
vn -0.950741 0.306069 -0.049128
vn -0.981426 0.180278 0.065600
vn -0.983122 0.164958 0.079115
vn -0.983760 0.060160 0.169106
vn 0.263123 -0.099625 0.959605
vn 0.506252 -0.070216 0.859523
vn 0.544960 -0.064597 0.835970
vn 0.759002 -0.026727 0.650540
vn 0.759343 0.154189 -0.632158
vn 0.759343 0.154189 -0.632158
vn 0.759343 0.154189 -0.632158
s 1
g F_Blackfungu F_Vagetables F_muer_2
usemtl aiStandardSurface12SG
f 42/35/67 41/44/68 56/63/69 35/64/70
f 43/34/71 40/36/72 41/44/68 42/35/67
f 44/45/73 42/35/67 35/64/70 37/65/74
f 45/46/75 43/34/71 42/35/67 44/45/73
f 46/47/76 40/36/72 43/34/71 45/46/75
s 2
f 31/38/77 35/64/78 34/52/79 33/50/80
f 30/39/81 31/38/77 33/50/80 32/37/82
f 36/40/83 37/65/84 35/53/78 31/38/77
f 38/56/85 36/40/83 31/38/77 30/39/81
f 39/41/86 38/56/85 30/39/81 32/37/82
s off
f 40/36/87 55/60/88 47/61/89 41/44/90
s 1
f 41/44/68 47/61/91 48/51/92 56/63/69
f 49/42/93 57/67/94 44/45/73 37/65/74
f 57/67/94 51/57/95 45/46/75 44/45/73
f 51/57/95 52/68/96 46/47/76 45/46/75
f 52/68/96 53/43/97 58/69/98 46/47/76
s off
f 58/69/99 54/59/100 46/47/101
f 54/59/102 55/60/103 40/36/104 46/47/105
f 32/37/106 33/50/107 47/49/108 55/48/109
s 2
f 33/50/80 34/52/79 48/51/110 47/49/111
f 49/42/112 37/54/84 36/40/83 50/55/113
f 50/55/113 36/40/83 38/56/85 51/57/114
f 51/57/114 38/56/85 39/41/86 52/58/115
f 52/58/115 39/41/86 54/59/116 53/43/117
s off
f 54/59/118 39/41/119 32/37/120 55/48/121
s 3
f 48/51/122 34/62/123 56/63/124
f 34/62/123 35/64/125 56/63/124
s 4
f 49/42/126 50/66/127 57/67/128
f 50/66/127 51/57/129 57/67/128
s off
f 53/43/130 54/59/131 58/69/132
g default
v -361.537330 65.435081 36.286551
v -364.616638 67.314224 34.835667
v -364.261161 65.864227 36.762614
v -361.537330 64.506981 37.914336
v -358.492370 65.301178 34.511296
v -357.373428 63.668934 36.554335
v -361.591041 67.411919 32.769043
v -364.550483 67.952255 35.315642
v -364.129074 66.426697 37.199145
v -361.502845 65.012611 38.325417
v -357.399856 64.190262 36.955956
v -358.311729 65.908646 34.942572
v -361.443290 65.920769 36.808777
v -361.398376 67.973740 32.883719
v -366.632148 68.528091 36.457560
v -367.659881 65.905617 41.827244
v -365.719810 63.455864 43.435734
v -362.275611 63.017178 45.471787
v -357.356620 62.936100 42.406880
v -355.038848 64.810150 40.299179
v -353.657470 65.992882 35.370385
v -354.675895 68.482758 31.159615
v -357.829925 69.273849 29.821623
v -359.639396 69.415710 30.701554
v -363.743888 69.555931 31.385590
v -366.989494 69.550591 33.946221
v -365.630203 63.727959 43.859577
v -353.478050 66.467155 35.436177
v -363.738533 70.067055 31.408163
vt 0.175240 0.687500
vt 0.391747 0.562500
vt 0.175240 0.687500
vt 0.391747 0.562500
vt 0.716506 0.500000
vt 0.066987 0.250000
vt 0.933013 0.250000
vt 0.502765 0.988755
vt 0.158494 0.562500
vt 0.391747 0.437500
vt 0.716506 0.500000
vt 0.608253 0.687500
vt 0.375000 0.841506
vt 0.073188 0.746420
vt 0.024594 0.625835
vt 0.146684 0.156247
vt 0.158494 0.562500
vt 0.370591 0.017037
vt 0.391747 0.437500
vt 0.750000 0.066987
vt 0.973430 0.624900
vt 0.608253 0.687500
vt 0.847530 0.849385
vt 0.624059 0.977034
vt 0.256589 0.928189
vt 0.375000 0.841506
vt 0.066987 0.750000
vt 0.017037 0.629409
vt 0.146447 0.146447
vt 0.146447 0.146447
vt 0.982963 0.629410
vt 0.982963 0.629410
vt 0.853553 0.853554
vt 0.629409 0.982963
vt 0.500000 1.000000
vt 0.250000 0.933013
vn 0.294248 0.821828 0.487869
vn 0.339945 0.818290 0.463507
vn 0.326134 0.844239 0.425321
vn 0.213300 0.918960 0.331685
vn -0.071125 0.936534 0.343285
vn 0.063366 0.842673 0.534683
vn 0.226666 0.816575 0.530874
vn -0.287634 -0.827569 -0.482074
vn -0.179622 -0.947895 -0.263119
vn -0.402458 -0.829346 -0.387574
vn -0.443490 -0.762893 -0.470436
vn 0.127723 -0.946588 -0.296072
vn -0.019088 -0.808315 -0.588441
vn -0.218824 -0.761893 -0.609619
vn 0.349812 0.806331 0.476930
vn 0.452975 0.785355 0.421938
vn 0.460521 0.771921 0.438245
vn 0.257971 0.890625 0.374485
vn 0.195408 0.933622 0.300275
vn 0.219897 0.941445 0.255591
vn -0.473260 0.863547 0.174104
vn -0.473260 0.863547 0.174104
vn -0.254691 0.860101 0.441994
vn -0.007473 0.833869 0.551912
vn 0.093477 0.821161 0.562989
vn 0.273099 0.686573 0.673821
vn 0.273099 0.686573 0.673821
vn 0.321795 0.803079 0.501511
vn -0.630644 -0.684271 -0.366142
vn -0.493815 -0.722031 -0.484579
vn -0.290753 -0.897464 -0.331695
vn -0.616817 -0.672847 -0.408428
vn -0.156903 -0.961562 -0.225345
vn -0.180975 -0.968634 -0.170282
vn 0.539221 -0.838289 -0.080695
vn 0.338397 -0.833974 -0.435862
vn 0.539221 -0.838289 -0.080695
vn 0.061741 -0.773696 -0.630541
vn -0.051219 -0.746933 -0.662924
vn -0.234257 -0.578212 -0.781534
vn -0.234257 -0.578212 -0.781534
vn -0.407220 -0.715364 -0.567825
vn -0.825481 -0.379279 0.418006
vn -0.696100 -0.528205 0.486256
vn -0.604044 -0.606469 0.517036
vn -0.418059 -0.721707 0.551693
vn 0.914135 -0.369127 0.167637
vn 0.936379 -0.346513 -0.055893
vn 0.932133 -0.332877 -0.142549
vn 0.881597 -0.280889 -0.379325
vn -0.162717 0.045234 -0.985635
vn -0.399143 0.044623 -0.915802
vn -0.406580 0.044556 -0.912528
vn -0.618910 0.041117 -0.784385
s 1
g F_Blackfungu F_Vagetables F_muer_1
usemtl aiStandardSurface12SG
f 71/71/133 66/70/134 67/78/135 68/79/136
f 69/80/137 70/81/138 71/71/133 68/79/136
f 70/81/138 72/82/139 66/70/134 71/71/133
s 2
f 59/73/140 62/88/141 61/86/142 60/72/143
f 64/74/144 62/88/141 59/73/140 63/91/145
f 63/91/145 59/73/140 60/72/143 65/95/146
s 1
f 66/70/134 84/96/147 73/97/148 67/78/135
f 73/97/148 74/75/149 85/99/150 67/78/135
f 67/78/135 85/99/150 76/87/151 68/79/136
f 76/87/151 77/89/152 69/80/137 68/79/136
f 77/89/153 78/76/154 86/101/155 69/80/137
f 86/101/155 80/102/156 70/81/138 69/80/137
f 80/102/156 81/103/157 72/82/139 70/81/138
f 81/103/157 82/104/158 87/105/159 72/82/139
f 72/82/139 87/105/160 84/96/147 66/70/134
s 2
f 60/72/143 61/86/142 73/84/161 84/83/162
f 73/84/161 61/86/142 75/85/163 74/75/164
f 61/86/142 62/88/141 76/87/165 75/85/163
f 76/87/165 62/88/141 64/74/144 77/89/166
f 77/89/167 64/74/144 79/90/168 78/76/169
f 79/90/168 64/74/144 63/91/145 80/92/170
f 80/92/170 63/91/145 65/95/146 81/93/171
f 81/93/171 65/95/146 83/94/172 82/77/173
f 65/95/146 60/72/143 84/83/162 83/94/174
s 3
f 74/75/175 75/98/176 85/99/177
f 75/98/176 76/87/178 85/99/177
s 4
f 78/76/179 79/100/180 86/101/181
f 79/100/180 80/102/182 86/101/181
s 5
f 82/104/183 83/94/184 87/105/185
f 83/94/184 84/96/186 87/105/185
