# This file uses meters as units for non-parametric coordinates.

mtllib Chicken.mtl
g default
v 3.646306 87.804047 21.215147
v 23.453720 90.005471 14.677399
v -11.591106 91.498419 6.216000
v 4.357139 94.140775 1.885808
v -12.060734 89.277168 6.032690
v -1.971781 94.853445 2.163399
v 13.084154 92.863016 5.597321
v 6.639297 94.697348 9.286494
v -7.621692 89.410698 15.601064
v -7.631644 84.762397 15.947992
v 0.128426 94.961525 2.179815
v 11.139244 87.355048 7.497426
v 22.348087 86.038198 18.520440
v 19.625053 89.442647 17.808766
v 8.852228 94.310078 8.200736
v -11.398033 91.363754 8.023809
v -2.270202 88.895736 18.671787
v 15.552329 85.937110 14.363779
v 18.378642 86.814795 13.032109
v 22.198826 88.699650 9.804094
v 19.476410 92.068350 9.899521
v 15.221642 92.005283 12.857775
v 7.196756 83.731336 22.062273
v 4.521316 84.197267 21.822604
v 3.044580 90.002974 19.614135
v 1.002833 88.581304 20.228340
v -10.521147 92.364643 4.919783
v 0.990997 83.502102 18.371451
v 4.631257 83.163715 20.491607
v 1.970576 83.625240 20.969369
v 25.137982 88.079918 12.885901
v 22.170762 91.123385 12.632077
v 25.670067 87.759903 15.000036
v -1.636281 83.862472 19.234803
v 0.834008 91.042388 1.249054
v -1.467438 90.967006 1.225869
v 18.145892 85.282408 17.520114
v 21.089954 86.140689 16.207585
v 19.378096 85.371472 19.784484
v 16.894614 89.299158 19.029871
v 14.980820 90.882833 16.846292
v 17.627991 90.843839 15.564631
v 12.670762 92.183736 14.177470
v 3.963359 95.351149 7.391014
v 6.128512 94.984255 6.543832
v -5.550416 91.321203 14.461229
v -7.229720 91.690715 12.073301
v -9.271936 89.998262 13.315941
v -9.572782 85.744652 13.553599
v -7.409632 85.675104 12.214037
v 8.636832 87.073097 8.646458
v 5.497907 88.036532 6.577524
v 7.953657 88.070643 5.667019
v 15.200449 88.468201 4.901301
v 12.197236 88.818883 3.467366
v 10.409557 93.281449 4.272188
v 2.450553 94.875827 2.013963
v 5.144192 91.188176 1.206988
v 3.362030 90.936391 1.087429
v 13.664445 87.596780 6.015363
v 5.284435 89.676231 1.890643
v 10.530985 88.090974 4.405514
v 20.894272 87.597561 11.266181
v 25.125723 86.776748 16.786316
v 23.753018 86.971120 14.428394
v 22.166462 89.843548 16.192825
v 17.454895 92.262579 11.244631
v 19.994388 91.202125 13.942847
v 11.061803 93.892632 6.841580
v 3.876038 95.264358 3.047028
v 8.378229 94.455988 5.391018
v -11.092680 89.487663 4.545437
v -5.317283 84.594787 14.729857
v 5.799063 88.600346 21.217153
v -0.164112 90.672496 17.803336
v -12.054530 88.152795 7.911705
v -10.295870 88.149362 6.576062
v 0.302499 89.847612 2.668758
v 2.691120 89.813740 2.417836
v 7.091284 90.210208 1.541857
v 5.879794 94.311150 2.431763
v 1.581566 95.530822 3.539335
v -0.531349 95.590928 3.776081
v -9.610433 92.509840 6.872078
v -4.911575 84.188264 17.701368
v -5.216413 89.107696 17.257853
v -2.421131 83.924791 16.616599
v 12.185470 86.453648 11.323885
v 14.838027 87.078011 10.040585
v 18.710299 88.628766 7.078053
v 17.325149 87.619213 8.382044
v 16.276990 92.553439 7.513850
v 12.089815 93.238893 10.354265
v 14.282372 93.160456 8.835162
v 9.715990 93.548392 11.603094
v -3.112164 91.046849 16.228471
vt 0.406250 0.000000
vt 0.375000 0.000000
vt 0.375000 0.250000
vt 0.375000 0.281250
vt 0.406250 0.281250
vt 0.375000 0.312500
vt 0.375000 0.500000
vt 0.406250 0.500000
vt 0.375000 0.750000
vt 0.375000 0.937500
vt 0.406250 0.937500
vt 0.375000 0.968750
vt 0.406250 0.968750
vt 0.406250 1.000000
vt 0.375000 1.000000
vt 0.656250 0.000000
vt 0.625000 0.000000
vt 0.687500 0.000000
vt 0.687500 0.250000
vt 0.656250 0.250000
vt 0.625000 0.250000
vt 0.343750 0.000000
vt 0.312500 0.000000
vt 0.343750 0.250000
vt 0.312500 0.250000
vt 0.531250 0.500000
vt 0.562500 0.500000
vt 0.562500 0.750000
vt 0.531250 0.750000
vt 0.531250 0.968750
vt 0.531250 1.000000
vt 0.531250 0.937500
vt 0.562500 0.937500
vt 0.562500 0.968750
vt 0.562500 1.000000
vt 0.531250 0.250000
vt 0.531250 0.000000
vt 0.562500 0.000000
vt 0.562500 0.250000
vt 0.531250 0.281250
vt 0.531250 0.312500
vt 0.562500 0.281250
vt 0.562500 0.312500
vt 0.531250 0.406250
vt 0.531250 0.375000
vt 0.562500 0.375000
vt 0.562500 0.406250
vt 0.375000 0.375000
vt 0.406250 0.375000
vt 0.375000 0.406250
vt 0.406250 0.406250
vt 0.375000 0.468750
vt 0.218750 0.000000
vt 0.250000 0.000000
vt 0.250000 0.250000
vt 0.218750 0.250000
vt 0.156250 0.250000
vt 0.375000 0.843750
vt 0.406250 0.843750
vt 0.375000 0.875000
vt 0.562500 0.875000
vt 0.531250 0.875000
vt 0.562500 0.843750
vt 0.531250 0.843750
vt 0.750000 0.250000
vt 0.750000 0.000000
vt 0.781250 0.250000
vt 0.781250 0.000000
vt 0.593750 0.500000
vt 0.625000 0.500000
vt 0.625000 0.750000
vt 0.593750 0.750000
vt 0.625000 0.875000
vt 0.593750 0.875000
vt 0.593750 0.843750
vt 0.625000 0.843750
vt 0.593750 0.781250
vt 0.593750 0.968750
vt 0.593750 1.000000
vt 0.593750 0.937500
vt 0.625000 0.937500
vt 0.625000 0.968750
vt 0.625000 1.000000
vt 0.593750 0.250000
vt 0.593750 0.000000
vt 0.593750 0.281250
vt 0.593750 0.312500
vt 0.625000 0.281250
vt 0.625000 0.312500
vt 0.593750 0.406250
vt 0.593750 0.468750
vt 0.593750 0.375000
vt 0.625000 0.375000
vt 0.625000 0.406250
vt 0.406250 0.750000
vt 0.406250 0.875000
vt 0.406250 0.250000
vt 0.406250 0.312500
vt 0.125000 0.000000
vt 0.156250 0.000000
vt 0.125000 0.250000
vt 0.375000 0.781250
vt 0.406250 0.781250
vt 0.531250 0.781250
vt 0.562500 0.781250
vt 0.625000 0.781250
vt 0.843750 0.250000
vt 0.843750 0.000000
vt 0.875000 0.000000
vt 0.875000 0.250000
vt 0.562500 0.468750
vt 0.625000 0.468750
vt 0.531250 0.468750
vt 0.406250 0.468750
vt 0.281250 0.000000
vt 0.281250 0.250000
vt 0.375000 0.906250
vt 0.406250 0.906250
vt 0.531250 0.906250
vt 0.562500 0.906250
vt 0.593750 0.906250
vt 0.625000 0.906250
vt 0.718750 0.250000
vt 0.718750 0.000000
vt 0.562500 0.343750
vt 0.593750 0.343750
vt 0.625000 0.343750
vt 0.531250 0.343750
vt 0.406250 0.343750
vt 0.375000 0.343750
vn -0.059844 0.153002 0.986412
vn -0.059844 0.153002 0.986412
vn -0.059844 0.153002 0.986412
vn -0.059844 0.153002 0.986412
vn -0.170863 0.548964 0.818196
vn -0.170863 0.548964 0.818196
vn -0.170863 0.548964 0.818196
vn -0.170863 0.548964 0.818196
vn -0.262499 0.664678 0.699498
vn -0.262499 0.664678 0.699498
vn -0.262499 0.664678 0.699498
vn -0.262499 0.664678 0.699498
vn -0.825596 0.225194 -0.517376
vn -0.825596 0.225194 -0.517376
vn -0.825596 0.225194 -0.517376
vn -0.825596 0.225194 -0.517376
vn -0.129190 -0.987011 0.095496
vn -0.129190 -0.987011 0.095496
vn -0.129190 -0.987011 0.095496
vn -0.129190 -0.987011 0.095496
vn -0.110260 -0.789405 0.603889
vn -0.110260 -0.789405 0.603889
vn -0.110260 -0.789405 0.603889
vn -0.110260 -0.789405 0.603889
vn 0.660005 0.573649 -0.485099
vn 0.660005 0.573649 -0.485099
vn 0.660005 0.573649 -0.485099
vn 0.660005 0.573649 -0.485099
vn 0.716253 0.694052 -0.072611
vn 0.716253 0.694052 -0.072611
vn 0.716253 0.694052 -0.072611
vn 0.716253 0.694052 -0.072611
vn -0.330214 0.077087 0.940753
vn -0.330214 0.077087 0.940753
vn -0.330214 0.077087 0.940753
vn -0.330214 0.077087 0.940753
vn -0.427796 0.049230 0.902534
vn -0.427796 0.049230 0.902534
vn -0.427796 0.049230 0.902534
vn -0.427796 0.049230 0.902534
vn -0.000946 0.232639 -0.972563
vn -0.000946 0.232639 -0.972563
vn -0.000946 0.232639 -0.972563
vn -0.000946 0.232639 -0.972563
vn 0.138927 -0.939361 -0.313527
vn 0.138927 -0.939361 -0.313527
vn 0.138927 -0.939362 -0.313527
vn 0.138927 -0.939362 -0.313527
vn 0.201803 -0.972927 -0.112647
vn 0.201803 -0.972927 -0.112647
vn 0.201803 -0.972927 -0.112647
vn 0.201803 -0.972927 -0.112647
vn 0.318448 0.398164 0.860265
vn 0.318448 0.398164 0.860265
vn 0.318448 0.398164 0.860265
vn 0.318448 0.398164 0.860265
vn 0.184102 0.882674 0.432427
vn 0.184102 0.882674 0.432427
vn 0.184102 0.882674 0.432427
vn 0.184102 0.882674 0.432427
vn 0.177888 0.944402 0.276514
vn 0.177888 0.944402 0.276514
vn 0.177888 0.944402 0.276514
vn 0.177888 0.944402 0.276514
vn 0.197432 0.978123 0.065551
vn 0.197431 0.978123 0.065551
vn 0.197431 0.978123 0.065551
vn 0.197431 0.978123 0.065551
vn 0.096057 0.995291 -0.012967
vn 0.096057 0.995291 -0.012967
vn 0.096057 0.995291 -0.012967
vn 0.096057 0.995291 -0.012967
vn -0.419660 0.782872 0.459344
vn -0.419660 0.782872 0.459344
vn -0.419660 0.782872 0.459344
vn -0.419660 0.782872 0.459344
vn -0.406466 0.843863 0.350258
vn -0.406466 0.843863 0.350258
vn -0.406466 0.843863 0.350258
vn -0.406466 0.843863 0.350258
vn -0.780299 0.068068 0.621691
vn -0.780299 0.068068 0.621691
vn -0.780299 0.068068 0.621691
vn -0.780299 0.068068 0.621691
vn -0.898775 0.122350 0.420991
vn -0.898775 0.122350 0.420991
vn -0.898775 0.122350 0.420991
vn -0.898775 0.122350 0.420991
vn -0.220131 -0.929041 -0.297363
vn -0.220131 -0.929041 -0.297363
vn -0.220131 -0.929041 -0.297363
vn -0.220131 -0.929041 -0.297363
vn -0.189623 -0.951116 -0.243764
vn -0.189623 -0.951116 -0.243764
vn -0.189623 -0.951116 -0.243764
vn -0.189623 -0.951117 -0.243764
vn -0.065383 -0.950651 -0.303293
vn -0.065383 -0.950651 -0.303293
vn -0.065383 -0.950651 -0.303293
vn -0.065383 -0.950651 -0.303293
vn -0.082428 -0.935343 -0.344004
vn -0.082428 -0.935343 -0.344004
vn -0.082428 -0.935343 -0.344004
vn -0.082428 -0.935343 -0.344004
vn 0.448001 0.337732 -0.827788
vn 0.448000 0.337731 -0.827788
vn 0.448000 0.337731 -0.827788
vn 0.448001 0.337731 -0.827788
vn 0.412994 0.313839 -0.854951
vn 0.412994 0.313839 -0.854951
vn 0.412994 0.313839 -0.854951
vn 0.412994 0.313839 -0.854951
vn -0.057140 0.218478 -0.974168
vn -0.057140 0.218478 -0.974168
vn -0.057140 0.218478 -0.974168
vn -0.057140 0.218478 -0.974168
vn 0.028310 0.233380 -0.971973
vn 0.028310 0.233380 -0.971973
vn 0.028310 0.233380 -0.971973
vn 0.028310 0.233380 -0.971973
vn 0.121476 -0.865896 -0.485250
vn 0.121476 -0.865896 -0.485250
vn 0.121476 -0.865896 -0.485250
vn 0.121476 -0.865896 -0.485250
vn -0.067455 -0.973515 -0.218443
vn -0.067455 -0.973515 -0.218443
vn -0.067455 -0.973515 -0.218443
vn -0.067455 -0.973515 -0.218443
vn -0.128496 -0.942102 -0.309730
vn -0.128496 -0.942102 -0.309730
vn -0.128496 -0.942102 -0.309730
vn -0.128496 -0.942102 -0.309730
vn 0.047768 -0.774617 -0.630624
vn 0.047768 -0.774617 -0.630624
vn 0.047768 -0.774617 -0.630624
vn 0.047768 -0.774617 -0.630624
vn 0.176131 -0.971124 -0.160924
vn 0.176131 -0.971124 -0.160924
vn 0.176131 -0.971124 -0.160924
vn 0.176131 -0.971124 -0.160924
vn 0.101775 -0.953099 -0.285032
vn 0.101775 -0.953099 -0.285032
vn 0.101775 -0.953099 -0.285032
vn 0.101775 -0.953099 -0.285032
vn 0.256931 -0.873756 -0.412962
vn 0.256931 -0.873755 -0.412962
vn 0.256931 -0.873756 -0.412962
vn 0.256931 -0.873755 -0.412962
vn 0.436038 -0.853957 -0.283950
vn 0.436038 -0.853957 -0.283950
vn 0.436038 -0.853957 -0.283950
vn 0.436038 -0.853957 -0.283950
vn 0.384693 0.494933 0.779136
vn 0.384693 0.494933 0.779136
vn 0.384693 0.494933 0.779136
vn 0.384693 0.494933 0.779136
vn 0.559331 0.636514 0.531036
vn 0.559330 0.636514 0.531036
vn 0.559331 0.636514 0.531036
vn 0.559331 0.636514 0.531036
vn 0.089500 0.947321 0.307526
vn 0.089500 0.947321 0.307526
vn 0.089500 0.947321 0.307526
vn 0.089500 0.947321 0.307526
vn 0.139230 0.896220 0.421194
vn 0.139230 0.896220 0.421194
vn 0.139230 0.896220 0.421194
vn 0.139230 0.896220 0.421194
vn 0.245836 0.912084 0.328129
vn 0.245836 0.912084 0.328129
vn 0.245836 0.912084 0.328129
vn 0.245836 0.912084 0.328129
vn 0.179297 0.966422 0.184069
vn 0.179297 0.966422 0.184070
vn 0.179297 0.966422 0.184069
vn 0.179297 0.966422 0.184070
vn 0.163060 0.986272 -0.026040
vn 0.163060 0.986272 -0.026040
vn 0.163060 0.986272 -0.026040
vn 0.163060 0.986272 -0.026040
vn 0.215204 0.976463 0.014410
vn 0.215204 0.976463 0.014410
vn 0.215204 0.976463 0.014410
vn 0.215204 0.976463 0.014410
vn 0.317934 0.901038 -0.295041
vn 0.317934 0.901038 -0.295041
vn 0.317934 0.901038 -0.295041
vn 0.317934 0.901038 -0.295041
vn 0.329716 0.887540 -0.321806
vn 0.329717 0.887540 -0.321807
vn 0.329716 0.887540 -0.321806
vn 0.329717 0.887540 -0.321806
vn -0.347264 0.181891 -0.919958
vn -0.347264 0.181891 -0.919958
vn -0.347264 0.181891 -0.919958
vn -0.347264 0.181891 -0.919958
vn -0.006495 -0.914326 -0.404926
vn -0.006495 -0.914326 -0.404926
vn -0.006495 -0.914326 -0.404926
vn -0.006495 -0.914326 -0.404926
vn -0.008767 -0.917009 -0.398770
vn -0.008767 -0.917009 -0.398770
vn -0.008767 -0.917009 -0.398770
vn -0.008767 -0.917009 -0.398770
vn 0.085283 -0.956003 -0.280686
vn 0.085283 -0.956003 -0.280686
vn 0.085283 -0.956003 -0.280686
vn 0.085283 -0.956003 -0.280686
vn 0.149043 -0.988593 0.021687
vn 0.149043 -0.988593 0.021687
vn 0.149043 -0.988593 0.021687
vn 0.149043 -0.988593 0.021687
vn 0.158975 0.244110 0.956628
vn 0.158975 0.244110 0.956628
vn 0.158975 0.244110 0.956628
vn 0.158975 0.244110 0.956628
vn 0.065643 0.821263 0.566762
vn 0.065643 0.821263 0.566762
vn 0.065643 0.821263 0.566762
vn 0.065643 0.821263 0.566762
vn 0.011879 0.920608 0.390308
vn 0.011879 0.920608 0.390308
vn 0.011879 0.920608 0.390308
vn 0.011879 0.920608 0.390308
vn -0.129841 0.926439 0.353343
vn -0.129841 0.926439 0.353343
vn -0.129841 0.926439 0.353343
vn -0.129841 0.926439 0.353343
vn -0.207060 0.939095 0.274274
vn -0.207060 0.939095 0.274274
vn -0.207060 0.939095 0.274274
vn -0.207060 0.939095 0.274274
vn -0.973455 0.195321 0.119312
vn -0.973455 0.195321 0.119312
vn -0.973455 0.195321 0.119312
vn -0.973455 0.195321 0.119312
vn -0.386778 -0.814031 -0.433308
vn -0.386778 -0.814031 -0.433308
vn -0.386778 -0.814031 -0.433308
vn -0.386778 -0.814031 -0.433308
vn -0.063317 -0.836150 -0.544834
vn -0.063317 -0.836150 -0.544834
vn -0.063317 -0.836150 -0.544834
vn -0.063317 -0.836150 -0.544834
vn -0.024791 -0.760287 -0.649114
vn -0.024791 -0.760287 -0.649114
vn -0.024791 -0.760287 -0.649114
vn -0.024791 -0.760287 -0.649114
vn -0.125449 -0.726138 -0.676008
vn -0.125449 -0.726138 -0.676008
vn -0.125449 -0.726138 -0.676008
vn -0.125449 -0.726138 -0.676008
vn 0.031393 -0.409388 -0.911820
vn 0.031393 -0.409388 -0.911820
vn 0.031393 -0.409388 -0.911820
vn 0.031393 -0.409388 -0.911820
vn 0.297906 0.286894 -0.910463
vn 0.297906 0.286894 -0.910463
vn 0.297906 0.286894 -0.910463
vn 0.297906 0.286894 -0.910463
vn 0.015116 0.921855 -0.387240
vn 0.015116 0.921855 -0.387240
vn 0.015116 0.921855 -0.387240
vn 0.015116 0.921855 -0.387240
vn 0.200185 0.744253 -0.637191
vn 0.200185 0.744253 -0.637191
vn 0.200185 0.744253 -0.637191
vn 0.200185 0.744253 -0.637191
vn -0.030277 0.925534 -0.377452
vn -0.030277 0.925534 -0.377452
vn -0.030277 0.925534 -0.377452
vn -0.030277 0.925534 -0.377452
vn -0.310351 0.950130 -0.030568
vn -0.310351 0.950130 -0.030568
vn -0.310351 0.950130 -0.030568
vn -0.310351 0.950130 -0.030568
vn -0.486788 0.862149 0.140485
vn -0.486788 0.862150 0.140485
vn -0.486787 0.862150 0.140485
vn -0.486788 0.862150 0.140485
vn -0.423923 0.051460 0.904235
vn -0.423923 0.051460 0.904235
vn -0.423923 0.051460 0.904235
vn -0.423923 0.051460 0.904235
vn -0.546984 0.052166 0.835516
vn -0.546984 0.052166 0.835516
vn -0.546984 0.052166 0.835516
vn -0.546984 0.052166 0.835516
vn -0.143271 -0.982989 -0.114916
vn -0.143271 -0.982989 -0.114916
vn -0.143271 -0.982989 -0.114916
vn -0.143271 -0.982989 -0.114916
vn -0.116735 -0.993098 0.011356
vn -0.116735 -0.993098 0.011356
vn -0.116735 -0.993098 0.011356
vn -0.116735 -0.993098 0.011356
vn 0.070923 -0.955187 -0.287382
vn 0.070923 -0.955187 -0.287382
vn 0.070922 -0.955187 -0.287382
vn 0.070923 -0.955187 -0.287381
vn 0.038027 -0.946301 -0.321041
vn 0.038027 -0.946302 -0.321041
vn 0.038027 -0.946301 -0.321041
vn 0.038027 -0.946302 -0.321041
vn 0.130912 -0.953026 -0.273137
vn 0.130912 -0.953026 -0.273137
vn 0.130912 -0.953026 -0.273137
vn 0.130912 -0.953026 -0.273137
vn 0.055461 -0.968368 -0.243286
vn 0.055461 -0.968368 -0.243286
vn 0.055461 -0.968368 -0.243286
vn 0.055461 -0.968368 -0.243286
vn 0.303413 -0.876394 -0.373998
vn 0.303413 -0.876394 -0.373998
vn 0.303413 -0.876394 -0.373998
vn 0.303413 -0.876394 -0.373998
vn 0.123156 -0.972801 -0.196189
vn 0.123156 -0.972801 -0.196189
vn 0.123156 -0.972801 -0.196189
vn 0.123156 -0.972801 -0.196189
vn 0.062988 -0.987336 -0.145606
vn 0.062988 -0.987336 -0.145605
vn 0.062988 -0.987336 -0.145606
vn 0.062988 -0.987336 -0.145606
vn 0.261049 -0.889007 -0.376191
vn 0.261049 -0.889007 -0.376191
vn 0.261049 -0.889007 -0.376191
vn 0.261049 -0.889007 -0.376191
vn 0.560520 0.447009 -0.697137
vn 0.560520 0.447009 -0.697137
vn 0.560520 0.447009 -0.697137
vn 0.560520 0.447009 -0.697137
vn 0.489273 0.374702 -0.787534
vn 0.489273 0.374702 -0.787534
vn 0.489273 0.374702 -0.787534
vn 0.489273 0.374702 -0.787534
vn 0.191478 0.973487 0.125137
vn 0.191478 0.973487 0.125137
vn 0.191478 0.973487 0.125137
vn 0.191478 0.973487 0.125137
vn 0.134188 0.960334 0.244441
vn 0.134188 0.960334 0.244441
vn 0.134188 0.960334 0.244441
vn 0.134188 0.960334 0.244441
vn 0.203368 0.979027 0.012117
vn 0.203368 0.979027 0.012117
vn 0.203368 0.979027 0.012117
vn 0.203368 0.979027 0.012117
vn 0.266776 0.945718 -0.185600
vn 0.266776 0.945718 -0.185600
vn 0.266776 0.945718 -0.185600
vn 0.266776 0.945718 -0.185600
vn 0.213813 0.949517 0.229566
vn 0.213813 0.949517 0.229566
vn 0.213813 0.949517 0.229566
vn 0.213813 0.949517 0.229566
vn 0.226298 0.961202 0.157734
vn 0.226298 0.961202 0.157734
vn 0.226298 0.961202 0.157734
vn 0.226298 0.961202 0.157734
vn -0.013569 0.915160 0.402862
vn -0.013569 0.915160 0.402862
vn -0.013569 0.915160 0.402862
vn -0.013569 0.915160 0.402862
vn -0.058911 0.915256 0.398542
vn -0.058911 0.915256 0.398542
vn -0.058911 0.915256 0.398542
vn -0.058911 0.915256 0.398542
vn -0.281661 0.669957 0.686895
vn -0.281661 0.669957 0.686895
vn -0.281661 0.669957 0.686895
vn -0.281661 0.669957 0.686895
vn -0.344228 0.715754 0.607621
vn -0.344228 0.715754 0.607621
vn -0.344228 0.715754 0.607621
vn -0.344228 0.715754 0.607621
s off
g F_Chicken F_Meat
usemtl aiStandardSurface12SG
f 24/2/1 23/1/2 74/97/3 1/3/4
f 1/3/5 74/97/6 25/5/7 26/4/8
f 26/4/9 25/5/10 75/98/11 17/6/12
f 3/7/13 27/8/14 72/95/15 5/9/16
f 34/10/17 28/11/18 29/13/19 30/12/20
f 30/12/21 29/13/22 23/14/23 24/15/24
f 31/16/25 20/18/26 21/19/27 32/20/28
f 33/17/29 31/16/30 32/20/31 2/21/32
f 30/22/33 24/2/34 1/3/35 26/24/36
f 34/23/37 30/22/38 26/24/39 17/25/40
f 6/26/41 11/27/42 35/28/43 36/29/44
f 37/30/45 18/32/46 19/33/47 38/34/48
f 39/31/49 37/30/50 38/34/51 13/35/52
f 40/36/53 39/37/54 13/38/55 14/39/56
f 41/40/57 40/36/58 14/39/59 42/42/60
f 43/41/61 41/40/62 42/42/63 22/43/64
f 44/44/65 8/45/66 15/46/67 45/47/68
f 83/113/69 44/44/70 45/47/71 82/111/72
f 9/48/73 46/49/74 47/51/75 48/50/76
f 48/50/77 47/51/78 84/114/79 16/52/80
f 49/53/81 10/54/82 9/55/83 48/56/84
f 76/100/85 49/53/86 48/56/87 16/57/88
f 76/102/89 77/103/90 50/59/91 49/58/92
f 49/58/93 50/59/94 73/96/95 10/60/96
f 12/61/97 51/62/98 52/64/99 53/63/100
f 53/63/101 52/64/102 78/104/103 79/105/104
f 7/65/105 54/66/106 55/68/107 56/67/108
f 56/67/109 55/68/110 80/108/111 81/107/112
f 11/27/113 57/69/114 59/72/115 35/28/116
f 57/69/117 4/70/118 58/71/119 59/72/120
f 54/73/121 60/74/122 62/75/123 55/76/124
f 60/74/125 12/61/126 53/63/127 62/75/128
f 62/75/129 53/63/130 79/105/131 61/77/132
f 55/76/133 62/75/134 61/77/135 80/106/136
f 13/35/137 38/34/138 65/78/139 64/79/140
f 38/34/141 19/33/142 63/80/143 65/78/144
f 65/78/145 63/80/146 20/81/147 31/82/148
f 64/79/149 65/78/150 31/82/151 33/83/152
f 14/39/153 13/38/154 64/85/155 66/84/156
f 66/84/157 64/85/158 33/17/159 2/21/160
f 22/43/161 42/42/162 68/86/163 67/87/164
f 42/42/165 14/39/166 66/84/167 68/86/168
f 68/86/169 66/84/170 2/21/171 32/88/172
f 67/87/173 68/86/174 32/88/175 21/89/176
f 82/111/177 45/47/178 71/90/179 70/91/180
f 45/47/181 15/46/182 69/92/183 71/90/184
f 71/90/185 69/92/186 7/93/187 56/94/188
f 70/91/189 71/90/190 56/94/191 81/112/192
f 27/8/193 6/26/194 36/29/195 72/95/196
f 50/59/197 77/103/198 78/104/199 52/64/200
f 73/96/201 50/59/202 52/64/203 51/62/204
f 29/13/205 28/11/206 18/32/207 37/30/208
f 23/14/209 29/13/210 37/30/211 39/31/212
f 74/97/213 23/1/214 39/37/215 40/36/216
f 25/5/217 74/97/218 40/36/219 41/40/220
f 75/98/221 25/5/222 41/40/223 43/41/224
f 47/51/225 46/49/226 8/45/227 44/44/228
f 84/114/229 47/51/230 44/44/231 83/113/232
f 5/99/233 76/100/234 16/57/235 3/101/236
f 5/9/237 72/95/238 77/103/239 76/102/240
f 78/104/241 77/103/242 72/95/243 36/29/244
f 79/105/245 78/104/246 36/29/247 35/28/248
f 61/77/249 79/105/250 35/28/251 59/72/252
f 80/106/253 61/77/254 59/72/255 58/71/256
f 81/107/257 80/108/258 58/109/259 4/110/260
f 11/27/261 82/111/262 70/91/263 57/69/264
f 57/69/265 70/91/266 81/112/267 4/70/268
f 6/26/269 83/113/270 82/111/271 11/27/272
f 27/8/273 84/114/274 83/113/275 6/26/276
f 16/52/277 84/114/278 27/8/279 3/7/280
f 85/115/281 34/23/282 17/25/283 86/116/284
f 10/54/285 85/115/286 86/116/287 9/55/288
f 10/60/289 73/96/290 87/118/291 85/117/292
f 85/117/293 87/118/294 28/11/295 34/10/296
f 18/32/297 28/11/298 87/118/299 88/119/300
f 88/119/301 87/118/302 73/96/303 51/62/304
f 19/33/305 18/32/306 88/119/307 89/120/308
f 89/120/309 88/119/310 51/62/311 12/61/312
f 20/81/313 63/80/314 91/121/315 90/122/316
f 63/80/317 19/33/318 89/120/319 91/121/320
f 91/121/321 89/120/322 12/61/323 60/74/324
f 90/122/325 91/121/326 60/74/327 54/73/328
f 21/19/329 20/18/330 90/124/331 92/123/332
f 92/123/333 90/124/334 54/66/335 7/65/336
f 15/46/337 93/125/338 94/126/339 69/92/340
f 93/125/341 22/43/342 67/87/343 94/126/344
f 94/126/345 67/87/346 21/89/347 92/127/348
f 69/92/349 94/126/350 92/127/351 7/93/352
f 95/128/353 43/41/354 22/43/355 93/125/356
f 8/45/357 95/128/358 93/125/359 15/46/360
f 96/129/361 75/98/362 43/41/363 95/128/364
f 46/49/365 96/129/366 95/128/367 8/45/368
f 17/6/369 75/98/370 96/129/371 86/130/372
f 86/130/373 96/129/374 46/49/375 9/48/376
