# This file uses meters as units for non-parametric coordinates.

mtllib PM_meat.mtl
g default
v -326.416538 75.931931 1104.971528
v -326.648533 77.908142 1104.390229
v -317.800053 77.295425 1094.898896
v -317.629978 75.985031 1094.990815
v -317.868656 77.971909 1096.582856
v -317.597660 76.078598 1097.127656
v -333.803532 76.030670 1094.784760
v -323.408116 76.157715 1085.453461
v -323.131443 77.996780 1086.415131
v -323.944004 79.044403 1087.988740
v -331.397404 79.004959 1094.664643
vt 0.824831 0.735652
vt 0.829742 0.744618
vt 0.818812 0.747662
vt 0.817620 0.736041
vt 0.834742 0.680753
vt 0.844433 0.687270
vt 0.839429 0.809705
vt 0.828128 0.812740
vt 0.794049 0.607872
vt 0.773872 0.604103
vt 0.795919 0.539231
vt 0.805613 0.545971
vt 0.823470 0.544181
vt 0.872593 0.588001
vt 0.838301 0.636346
vt 0.796594 0.598885
vt 0.824848 0.674263
vt 0.785453 0.678960
vt 0.802134 0.664278
vt 0.796605 0.674685
vn 0.990964 0.132993 -0.017390
vn 0.990964 0.132993 -0.017390
vn 0.990964 0.132993 -0.017390
vn 0.990964 0.132993 -0.017390
vn 0.537518 0.796714 -0.276263
vn 0.537518 0.796714 -0.276263
vn 0.537518 0.796714 -0.276263
vn 0.537518 0.796714 -0.276263
vn 0.633865 0.290938 0.716638
vn 0.633865 0.290938 0.716638
vn 0.633865 0.290938 0.716638
vn 0.633865 0.290938 0.716638
vn -0.768737 0.407446 0.492982
vn -0.768737 0.407446 0.492982
vn -0.768737 0.407446 0.492982
vn -0.768737 0.407446 0.492982
vn 0.064674 0.994729 0.079577
vn 0.064674 0.994729 0.079577
vn 0.064674 0.994729 0.079577
vn 0.064674 0.994729 0.079577
vn 0.848143 0.114152 -0.517323
vn 0.848143 0.114152 -0.517323
vn 0.848143 0.114152 -0.517323
vn 0.848143 0.114152 -0.517323
vn -0.597083 0.459897 -0.657257
vn -0.597083 0.459897 -0.657257
vn -0.597083 0.459897 -0.657257
vn -0.597083 0.459897 -0.657257
vn -0.597083 0.459897 -0.657257
s off
g polySurface205 group15 polySurface197 polySurface195 polySurface193 polySurface191 polySurface189 F_Potato_Chicken_cooked
usemtl aiStandardSurface5SG
f 3/1/1 5/2/2 6/3/3 4/4/4
f 5/2/5 3/1/6 9/5/7 10/6/8
f 2/7/9 1/8/10 6/3/11 5/2/12
f 11/9/13 7/10/14 1/11/15 2/12/16
f 2/13/17 5/14/18 10/15/19 11/16/20
f 3/1/21 4/4/22 8/17/23 9/5/24
f 8/18/25 7/10/26 11/9/27 10/19/28 9/20/29
g default
v -334.001072 71.786255 1094.729218
v -325.912937 71.786255 1105.143525
v -323.187168 71.786255 1085.015839
v -317.269444 71.786255 1095.263276
v -317.318821 71.786240 1097.495698
v -326.416538 75.931931 1104.971528
v -333.803532 76.030670 1094.784760
v -323.408116 76.157715 1085.453461
v -317.629978 75.985031 1094.990815
v -317.597660 76.078598 1097.127656
vt 0.795919 0.539231
vt 0.773872 0.604103
vt 0.750437 0.601679
vt 0.774448 0.529462
vt 0.800239 0.670325
vt 0.824848 0.674263
vt 0.817620 0.736041
vt 0.794286 0.737390
vt 0.794846 0.750521
vt 0.818812 0.747662
vt 0.828128 0.812740
vt 0.804596 0.814905
vt 0.785453 0.678960
vt 0.760538 0.684873
vt 0.625810 0.583873
vt 0.686397 0.529452
vt 0.719552 0.586865
vt 0.719276 0.599373
vt 0.671125 0.642221
vn -0.799422 -0.020823 0.600409
vn -0.799422 -0.020823 0.600409
vn -0.799422 -0.020823 0.600409
vn -0.799422 -0.020823 0.600409
vn 0.859099 0.068061 -0.507264
vn 0.859099 0.068061 -0.507264
vn 0.859099 0.068061 -0.507264
vn 0.859099 0.068061 -0.507264
vn 0.997163 0.075242 0.002282
vn 0.997163 0.075242 0.002282
vn 0.997163 0.075242 0.002282
vn 0.997163 0.075242 0.002282
vn 0.660226 0.108784 0.743148
vn 0.660226 0.108784 0.743148
vn 0.660226 0.108784 0.743148
vn 0.660226 0.108784 0.743148
vn -0.208235 -0.950210 -0.231816
vn -0.667700 0.040736 -0.743315
vn -0.667700 0.040736 -0.743315
vn -0.235166 -0.936033 -0.261798
vn -0.000000 -1.000000 -0.000000
vn -0.000000 -1.000000 -0.000000
vn -0.000000 -1.000000 -0.000000
s off
g group15 polySurface197 polySurface195 polySurface193 polySurface191 polySurface189 F_Potato_Chicken_cooked polySurface204
usemtl aiStandardSurface5SG
f 17/21/30 18/22/31 12/23/32 13/24/33
f 14/25/34 19/26/35 20/27/36 15/28/37
f 16/29/38 15/28/39 20/27/40 21/30/41
f 21/30/42 17/31/43 13/32/44 16/29/45
s 1
f 12/23/46 18/22/47 19/33/48 14/34/49
f 12/35/46 14/36/49 15/37/50 16/38/51 13/39/52
g default
v -324.681462 75.748672 1115.161225
v -325.073826 77.627579 1115.164399
v -327.568516 77.045013 1105.234834
v -327.465092 75.799164 1105.128877
v -326.661106 77.688202 1105.810273
v -326.276737 75.888092 1105.764863
v -332.586491 75.842529 1117.843476
v -334.513889 75.963318 1106.741181
v -333.897953 77.711838 1106.820283
v -333.281651 78.707901 1107.949433
v -331.907688 78.670364 1115.905244
vt 0.632457 0.933622
vt 0.628583 0.927769
vt 0.638674 0.925550
vt 0.639453 0.933070
vt 0.703520 0.956277
vt 0.698493 0.961171
vt 0.662737 0.952694
vt 0.666022 0.944191
vt 0.984103 0.862813
vt 0.973351 0.863032
vt 0.974766 0.809647
vt 0.985082 0.809663
vt 0.812222 0.955717
vt 0.793835 0.962448
vt 0.794295 0.915678
vt 0.804901 0.917458
vt 0.712505 0.903883
vt 0.673785 0.899628
vt 0.637946 0.973529
vt 0.628118 0.970107
vt 0.556808 0.976102
vt 0.556781 0.912965
vt 0.573488 0.923176
vt 0.573270 0.968409
vt 0.567163 0.975176
vn 0.465673 0.118159 -0.877033
vn 0.465673 0.118159 -0.877033
vn 0.465673 0.118159 -0.877033
vn 0.465673 0.118159 -0.877033
vn -0.088039 0.756139 -0.648462
vn -0.088039 0.756139 -0.648462
vn -0.088039 0.756139 -0.648462
vn -0.088039 0.756139 -0.648462
vn 0.965132 0.205912 -0.161617
vn 0.965132 0.205912 -0.161617
vn 0.965132 0.205912 -0.161617
vn 0.965132 0.205912 -0.161617
vn 0.237348 0.356988 0.903452
vn 0.237348 0.356988 0.903452
vn 0.237348 0.356988 0.903452
vn 0.237348 0.356988 0.903452
vn 0.147394 0.988884 -0.019607
vn 0.147394 0.988884 -0.019607
vn 0.147394 0.988883 -0.019607
vn 0.147394 0.988884 -0.019607
vn -0.225553 0.098503 -0.969238
vn -0.225553 0.098503 -0.969238
vn -0.225553 0.098503 -0.969238
vn -0.225553 0.098503 -0.969238
vn -0.926375 0.338298 0.165482
vn -0.926375 0.338298 0.165482
vn -0.926375 0.338298 0.165482
vn -0.926375 0.338298 0.165482
vn -0.926375 0.338298 0.165482
s off
g group15 polySurface197 polySurface195 polySurface193 polySurface191 polySurface189 F_Potato_Chicken_cooked polySurface201
usemtl aiStandardSurface5SG
f 24/40/53 26/41/54 27/42/55 25/43/56
f 26/44/57 24/45/58 30/46/59 31/47/60
f 23/48/61 22/49/62 27/50/63 26/51/64
f 32/52/65 28/53/66 22/54/67 23/55/68
f 23/56/69 26/44/70 31/47/71 32/57/72
f 24/40/73 25/43/74 29/58/75 30/59/76
f 29/60/77 28/61/78 32/62/79 31/63/80 30/64/81
g default
v -332.678257 71.807068 1117.982270
v -324.430668 71.807083 1114.816499
v -334.686802 71.807098 1106.431001
v -327.203251 71.807083 1104.928437
v -325.987400 71.807083 1105.658662
v -324.681462 75.748672 1115.161225
v -332.586491 75.842529 1117.843476
v -334.513889 75.963318 1106.741181
v -327.465092 75.799164 1105.128877
v -326.276737 75.888092 1105.764863
vt 0.794295 0.915678
vt 0.793835 0.962448
vt 0.771207 0.962708
vt 0.772219 0.913223
vt 0.661328 0.974422
vt 0.637946 0.973529
vt 0.639453 0.933070
vt 0.661827 0.931610
vt 0.661534 0.923665
vt 0.638674 0.925550
vt 0.974766 0.809647
vt 0.973351 0.863032
vt 0.951223 0.861100
vt 0.951844 0.809059
vt 0.623217 0.929248
vt 0.611963 0.864531
vt 0.653891 0.856112
vt 0.660703 0.860203
vt 0.669425 0.911511
vt 0.534171 0.912054
vt 0.556781 0.912965
vt 0.556808 0.976102
vt 0.533495 0.977740
vn 0.340270 -0.017490 0.940165
vn 0.340270 -0.017490 0.940165
vn 0.340270 -0.017490 0.940165
vn 0.340270 -0.017490 0.940165
vn -0.208588 0.058902 -0.976228
vn -0.208588 0.058902 -0.976228
vn -0.208588 0.058902 -0.976228
vn -0.208588 0.058902 -0.976228
vn 0.491094 0.066524 -0.868563
vn 0.491094 0.066524 -0.868563
vn 0.491094 0.066524 -0.868563
vn 0.491094 0.066524 -0.868563
vn 0.983151 0.075548 -0.166451
vn 0.983151 0.075548 -0.166451
vn 0.983151 0.075548 -0.166451
vn 0.983151 0.075548 -0.166451
vn -0.484239 -0.870874 0.084208
vn -0.418581 -0.905258 0.072790
vn -0.000000 -1.000000 -0.000001
vn -0.000000 -1.000000 -0.000001
vn -0.000000 -1.000000 -0.000001
vn -0.984821 0.028232 0.171261
vn -0.984821 0.028232 0.171261
s off
g group15 polySurface197 polySurface195 polySurface193 polySurface191 polySurface189 F_Potato_Chicken_cooked polySurface200
usemtl aiStandardSurface5SG
f 38/65/82 39/66/83 33/67/84 34/68/85
f 35/69/86 40/70/87 41/71/88 36/72/89
f 37/73/90 36/72/91 41/71/92 42/74/93
f 42/75/94 38/76/95 34/77/96 37/78/97
s 1
f 33/79/98 35/80/99 36/81/100 37/82/101 34/83/102
f 33/84/98 39/85/103 40/86/104 35/87/99
g default
v -321.251133 74.654968 1087.482758
v -321.029759 75.970200 1086.875581
v -308.908421 75.562393 1088.720429
v -308.853703 74.690292 1088.940644
v -310.048374 76.012650 1089.790131
v -310.219822 74.752548 1090.409150
v -319.606968 74.720673 1073.751557
v -306.548283 74.805237 1077.143769
v -306.986668 76.029160 1078.048432
v -308.555790 76.726395 1078.351777
v -317.909336 76.700134 1075.909882
vt 0.982378 0.595584
vt 0.986012 0.603962
vt 0.979175 0.608021
vt 0.977522 0.596926
vt 0.828905 0.818618
vt 0.834617 0.811516
vt 0.894399 0.800384
vt 0.893090 0.810065
vt 0.985100 0.959990
vt 0.976920 0.960705
vt 0.974385 0.896810
vt 0.982299 0.896396
vt 0.980434 0.723824
vt 0.964811 0.734576
vt 0.965166 0.657095
vt 0.972732 0.660282
vt 0.845372 0.880107
vt 0.906892 0.862438
vt 0.975042 0.529658
vt 0.982296 0.534783
vt 0.851920 0.889108
vt 0.856290 0.964575
vt 0.841179 0.953114
vt 0.838136 0.899038
vt 0.843185 0.890675
vn 0.715901 0.221427 0.662160
vn 0.715901 0.221427 0.662160
vn 0.715901 0.221427 0.662160
vn 0.715901 0.221427 0.662160
vn 0.436304 0.892417 0.115022
vn 0.436304 0.892417 0.115022
vn 0.436304 0.892418 0.115022
vn 0.436304 0.892417 0.115022
vn -0.232100 0.446786 0.864009
vn -0.232100 0.446786 0.864009
vn -0.232100 0.446786 0.864009
vn -0.232100 0.446786 0.864009
vn -0.824986 0.547144 -0.141532
vn -0.824986 0.547144 -0.141532
vn -0.824986 0.547144 -0.141532
vn -0.824986 0.547144 -0.141532
vn -0.019267 0.997992 0.060342
vn -0.019267 0.997992 0.060342
vn -0.019267 0.997992 0.060342
vn -0.019267 0.997992 0.060342
vn 0.968183 0.166887 0.186469
vn 0.968183 0.166887 0.186469
vn 0.968183 0.166887 0.186469
vn 0.968183 0.166887 0.186469
vn 0.186251 0.649182 -0.737478
vn 0.186251 0.649182 -0.737478
vn 0.186252 0.649182 -0.737478
vn 0.186251 0.649182 -0.737478
vn 0.186251 0.649182 -0.737478
s off
g group15 polySurface197 polySurface195 polySurface193 polySurface191 polySurface189 F_Potato_Chicken_cooked polySurface215
usemtl aiStandardSurface5SG
f 45/88/105 47/89/106 48/90/107 46/91/108
f 47/92/109 45/93/110 51/94/111 52/95/112
f 44/96/113 43/97/114 48/98/115 47/99/116
f 53/100/117 49/101/118 43/102/119 44/103/120
f 44/104/121 47/92/122 52/95/123 53/105/124
f 45/88/125 46/91/126 50/106/127 51/107/128
f 50/108/129 49/109/130 53/110/131 52/111/132 51/112/133
g default
v -319.703861 71.887955 1073.530244
v -321.023899 71.967224 1088.067231
v -306.115360 71.824493 1077.054780
v -308.787937 71.894226 1089.459565
v -310.271183 71.898712 1090.916352
v -321.251133 74.654968 1087.482758
v -319.606968 74.720673 1073.751557
v -306.548283 74.805237 1077.143769
v -308.853703 74.690292 1088.940644
v -310.219822 74.752548 1090.409150
vt 0.965166 0.657095
vt 0.964811 0.734576
vt 0.948915 0.735594
vt 0.950054 0.653820
vt 0.958147 0.529472
vt 0.975042 0.529658
vt 0.977522 0.596926
vt 0.962001 0.600520
vt 0.963434 0.612097
vt 0.979175 0.608021
vt 0.974385 0.896810
vt 0.976920 0.960705
vt 0.961515 0.959373
vt 0.958147 0.897140
vt 0.540894 0.684937
vt 0.617026 0.704684
vt 0.602050 0.774185
vt 0.593740 0.782347
vt 0.533495 0.766384
vt 0.872218 0.964591
vt 0.856290 0.964575
vt 0.851920 0.889108
vt 0.868519 0.886026
vn -0.994091 -0.030329 -0.104226
vn -0.994091 -0.030329 -0.104226
vn -0.994091 -0.030329 -0.104226
vn -0.994091 -0.030329 -0.104226
vn 0.974639 0.099076 0.200658
vn 0.974639 0.099076 0.200658
vn 0.974639 0.099076 0.200658
vn 0.974639 0.099076 0.200658
vn 0.711981 0.127239 0.690575
vn 0.711981 0.127239 0.690575
vn 0.711981 0.127239 0.690575
vn 0.711981 0.127239 0.690575
vn -0.252349 0.179311 0.950877
vn -0.252349 0.179312 0.950877
vn -0.252349 0.179312 0.950877
vn -0.252349 0.179311 0.950877
vn 0.050954 -0.975161 -0.215559
vn 0.041045 -0.983267 -0.177484
vn -0.006137 -0.999972 0.004232
vn -0.006137 -0.999972 0.004232
vn -0.006137 -0.999972 0.004232
vn 0.250653 0.066039 -0.965822
vn 0.250653 0.066039 -0.965822
s off
g group15 polySurface197 polySurface195 polySurface193 polySurface191 polySurface189 F_Potato_Chicken_cooked polySurface214
usemtl aiStandardSurface5SG
f 59/113/134 60/114/135 54/115/136 55/116/137
f 56/117/138 61/118/139 62/119/140 57/120/141
f 58/121/142 57/120/143 62/119/144 63/122/145
f 63/123/146 59/124/147 55/125/148 58/126/149
s 1
f 54/127/150 56/128/151 57/129/152 58/130/153 55/131/154
f 54/132/150 60/133/155 61/134/156 56/135/151
g default
v -308.986454 75.542053 1089.916474
v -308.545445 77.359497 1089.547089
v -299.271824 76.795975 1098.438081
v -299.319767 75.590881 1098.654023
v -300.670933 77.418121 1098.633271
v -301.075474 75.676910 1099.042573
v -301.802494 75.632843 1079.523652
v -292.407078 75.749664 1090.267304
v -293.154209 77.440994 1090.751801
v -294.584446 78.404449 1090.050385
v -301.308964 78.368164 1082.345063
vt 0.562604 0.835094
vt 0.565671 0.843513
vt 0.555545 0.844984
vt 0.555737 0.835217
vt 0.660473 0.682032
vt 0.669121 0.682073
vt 0.703986 0.724814
vt 0.695010 0.730126
vt 0.574184 0.910358
vt 0.563599 0.911863
vt 0.914076 0.934404
vt 0.895145 0.945979
vt 0.894197 0.875199
vt 0.904577 0.877715
vt 0.616579 0.733134
vt 0.657531 0.773468
vt 0.564102 0.775039
vt 0.573051 0.780975
vt 0.936955 0.937908
vt 0.944502 0.858299
vt 0.960459 0.873718
vt 0.954861 0.930743
vt 0.947657 0.938286
vn 0.216156 0.170800 0.961303
vn 0.216156 0.170800 0.961303
vn 0.216156 0.170800 0.961303
vn 0.216156 0.170800 0.961303
vn 0.398629 0.833489 0.382611
vn 0.398629 0.833489 0.382611
vn 0.398629 0.833489 0.382611
vn 0.398629 0.833489 0.382611
vn -0.720720 0.307236 0.621425
vn -0.720720 0.307236 0.621425
vn -0.720720 0.307236 0.621425
vn -0.720720 0.307236 0.621425
vn -0.707009 0.442316 -0.551811
vn -0.707009 0.442316 -0.551811
vn -0.707009 0.442316 -0.551811
vn -0.707009 0.442316 -0.551811
vn -0.076687 0.995184 0.061050
vn -0.076687 0.995184 0.061050
vn -0.076687 0.995184 0.061050
vn -0.076687 0.995184 0.061050
vn 0.767401 0.126952 0.628474
vn 0.767401 0.126952 0.628474
vn 0.767401 0.126952 0.628474
vn 0.767401 0.126952 0.628474
vn 0.655609 0.483517 -0.579990
vn 0.655609 0.483517 -0.579990
vn 0.655609 0.483517 -0.579990
vn 0.655609 0.483517 -0.579990
vn 0.655609 0.483517 -0.579990
s off
g group15 polySurface197 polySurface195 polySurface193 polySurface191 polySurface189 F_Potato_Chicken_cooked polySurface213
usemtl aiStandardSurface5SG
f 66/136/157 68/137/158 69/138/159 67/139/160
f 68/140/161 66/141/162 72/142/163 73/143/164
f 65/144/165 64/145/166 69/138/167 68/137/168
f 74/146/169 70/147/170 64/148/171 65/149/172
f 65/150/173 68/140/174 73/143/175 74/151/176
f 66/136/177 67/139/178 71/152/179 72/153/180
f 71/154/181 70/155/182 74/156/183 73/157/184 72/158/185
g default
v -301.789097 71.729401 1079.281342
v -309.045658 71.729401 1090.539155
v -292.010197 71.729416 1090.456391
v -299.485142 71.729401 1099.124360
v -301.333073 71.729401 1099.432099
v -308.986454 75.542053 1089.916474
v -301.802494 75.632843 1079.523652
v -292.407078 75.749664 1090.267304
v -299.319767 75.590881 1098.654023
v -301.075474 75.676910 1099.042573
vt 0.894197 0.875199
vt 0.895145 0.945979
vt 0.873271 0.947275
vt 0.872755 0.872235
vt 0.541627 0.771625
vt 0.564102 0.775039
vt 0.555737 0.835217
vt 0.533903 0.835577
vt 0.533495 0.846404
vt 0.555545 0.844984
vt 0.563599 0.911863
vt 0.541817 0.912307
vt 0.574151 0.529470
vt 0.628939 0.592080
vt 0.587059 0.640644
vt 0.576706 0.642368
vt 0.533495 0.592543
vt 0.922827 0.855088
vt 0.944502 0.858299
vt 0.936955 0.937908
vt 0.914297 0.937846
vn -0.831674 -0.022412 -0.554811
vn -0.831674 -0.022412 -0.554811
vn -0.831674 -0.022412 -0.554811
vn -0.831674 -0.022412 -0.554811
vn 0.761770 0.076205 0.643350
vn 0.761770 0.076205 0.643350
vn 0.761770 0.076205 0.643350
vn 0.761770 0.076205 0.643350
vn 0.191063 0.097205 0.976753
vn 0.191063 0.097205 0.976753
vn 0.191063 0.097205 0.976753
vn 0.191063 0.097205 0.976753
vn -0.750915 0.115465 0.650226
vn -0.750915 0.115465 0.650226
vn -0.750915 0.115465 0.650226
vn -0.750915 0.115465 0.650226
vn 0.272477 -0.932148 -0.238447
vn 0.203709 -0.962665 -0.178268
vn 0.000001 -1.000000 0.000000
vn 0.000001 -1.000000 0.000000
vn 0.000001 -1.000000 0.000000
vn 0.751827 0.043350 -0.657934
vn 0.751827 0.043350 -0.657934
s off
g group15 polySurface197 polySurface195 polySurface193 polySurface191 polySurface189 F_Potato_Chicken_cooked polySurface212
usemtl aiStandardSurface5SG
f 80/159/186 81/160/187 75/161/188 76/162/189
f 77/163/190 82/164/191 83/165/192 78/166/193
f 79/167/194 78/166/195 83/165/196 84/168/197
f 84/168/198 80/169/199 76/170/200 79/167/201
s 1
f 75/171/202 77/172/203 78/173/204 79/174/205 76/175/206
f 75/176/202 81/177/207 82/178/208 77/179/203
g default
v -303.904911 75.501221 1112.350678
v -304.174717 77.240128 1112.009614
v -299.813358 76.700958 1103.050629
v -299.678105 75.547943 1103.068818
v -299.545597 77.296249 1104.237275
v -299.255528 75.630234 1104.542573
v -310.937626 75.588089 1107.265107
v -305.473087 75.699875 1098.002168
v -305.101017 77.318100 1098.595063
v -305.370030 78.239944 1099.905000
v -309.290806 78.205246 1106.536469
vt 0.602505 0.903049
vt 0.605624 0.910140
vt 0.596141 0.911604
vt 0.595997 0.903142
vt 0.946163 0.697146
vt 0.945986 0.704732
vt 0.916651 0.730270
vt 0.913375 0.721781
vt 0.608663 0.960757
vt 0.598705 0.962298
vt 0.937887 0.797169
vt 0.921090 0.794747
vt 0.932291 0.748903
vt 0.941382 0.753529
vt 0.920016 0.653726
vt 0.891218 0.684739
vt 0.599890 0.860269
vt 0.608749 0.864682
vt 0.932408 0.852129
vt 0.946365 0.840061
vt 0.941949 0.848312
vn 0.954488 0.112287 -0.276304
vn 0.954488 0.112287 -0.276304
vn 0.954488 0.112287 -0.276304
vn 0.954488 0.112287 -0.276304
vn 0.468715 0.754997 -0.458570
vn 0.468715 0.754997 -0.458570
vn 0.468715 0.754997 -0.458570
vn 0.468715 0.754997 -0.458570
vn 0.834516 0.232072 0.499725
vn 0.834516 0.232072 0.499725
vn 0.834516 0.232072 0.499725
vn 0.834516 0.232072 0.499725
vn -0.592882 0.363840 0.718409
vn -0.592882 0.363840 0.718409
vn -0.592882 0.363840 0.718409
vn -0.592882 0.363840 0.718409
vn 0.109257 0.991467 0.071104
vn 0.109257 0.991467 0.071104
vn 0.109257 0.991467 0.071104
vn 0.109257 0.991467 0.071104
vn 0.652415 0.100041 -0.751230
vn 0.652415 0.100041 -0.751230
vn 0.652415 0.100041 -0.751230
vn 0.652415 0.100041 -0.751230
vn -0.800401 0.376571 -0.466425
vn -0.800401 0.376571 -0.466425
vn -0.800401 0.376571 -0.466425
vn -0.800401 0.376571 -0.466425
vn -0.800401 0.376571 -0.466425
s off
g group15 polySurface197 polySurface195 polySurface193 polySurface191 polySurface189 F_Potato_Chicken_cooked polySurface209
usemtl aiStandardSurface5SG
f 87/180/209 89/181/210 90/182/211 88/183/212
f 89/184/213 87/185/214 93/186/215 94/187/216
f 86/188/217 85/189/218 90/182/219 89/181/220
f 95/190/221 91/191/222 85/192/223 86/193/224
f 86/194/225 89/184/226 94/187/227 95/195/228
f 87/180/229 88/183/230 92/196/231 93/197/232
f 92/198/233 91/191/234 95/190/235 94/199/236 93/200/237
g default
v -311.085118 71.853317 1107.279755
v -303.523289 71.853287 1112.334931
v -305.401737 71.853302 1097.639375
v -299.376957 71.853302 1103.160981
v -298.993138 71.853287 1104.723115
v -303.904911 75.501221 1112.350678
v -310.937626 75.588089 1107.265107
v -305.473087 75.699875 1098.002168
v -299.678105 75.547943 1103.068818
v -299.255528 75.630234 1104.542573
vt 0.932291 0.748903
vt 0.921090 0.794747
vt 0.900449 0.793936
vt 0.912642 0.742561
vt 0.578341 0.857707
vt 0.599890 0.860269
vt 0.595997 0.903142
vt 0.575232 0.903532
vt 0.575037 0.912680
vt 0.596141 0.911604
vt 0.598705 0.962298
vt 0.578068 0.962447
vt 0.932408 0.852129
vt 0.910685 0.857893
vt 0.847368 0.750462
vt 0.879210 0.696450
vt 0.912965 0.727386
vt 0.915115 0.736138
vt 0.889734 0.778785
vn -0.570584 -0.018219 0.821037
vn -0.570584 -0.018219 0.821037
vn -0.570584 -0.018219 0.821037
vn -0.570584 -0.018219 0.821037
vn 0.666479 0.059591 -0.743139
vn 0.666479 0.059591 -0.743139
vn 0.666479 0.059591 -0.743139
vn 0.666479 0.059591 -0.743139
vn 0.964113 0.063323 -0.257830
vn 0.964113 0.063323 -0.257830
vn 0.964113 0.063323 -0.257830
vn 0.964113 0.063323 -0.257830
vn 0.855801 0.085554 0.510182
vn 0.855801 0.085554 0.510182
vn 0.855801 0.085554 0.510182
vn 0.855801 0.085554 0.510182
vn -0.335244 -0.921169 -0.197632
vn -0.861011 0.031961 -0.507582
vn -0.861011 0.031961 -0.507582
vn -0.375298 -0.900112 -0.221245
vn -0.000002 -1.000000 -0.000001
vn -0.000002 -1.000000 -0.000001
vn -0.000002 -1.000000 -0.000001
s off
g group15 polySurface197 polySurface195 polySurface193 polySurface191 polySurface189 F_Potato_Chicken_cooked polySurface208
usemtl aiStandardSurface5SG
f 101/201/238 102/202/239 96/203/240 97/204/241
f 98/205/242 103/206/243 104/207/244 99/208/245
f 100/209/246 99/208/247 104/207/248 105/210/249
f 105/210/250 101/211/251 97/212/252 100/209/253
s 1
f 96/203/254 102/202/255 103/213/256 98/214/257
f 96/215/254 98/216/257 99/217/258 100/218/259 97/219/260
