# This file uses meters as units for non-parametric coordinates.

mtllib PM_potato.mtl
g default
v -323.349858 71.758308 1112.914399
v -317.753452 71.758316 1120.283051
v -320.579350 77.076576 1110.345673
v -317.884861 71.758347 1101.619111
v -309.654576 71.758347 1109.277192
v -312.234196 71.758324 1115.042207
v -325.352390 71.758316 1105.698823
v -319.692539 75.872726 1105.018525
v -322.310917 74.504242 1112.041108
v -318.952580 75.061096 1117.445283
v -315.167668 77.031197 1110.091523
v -323.564091 75.632759 1107.476167
v -316.693516 76.844467 1113.405000
vt 0.629209 0.660155
vt 0.608080 0.690737
vt 0.599599 0.659157
vt 0.709190 0.622390
vt 0.755302 0.665296
vt 0.740849 0.697595
vt 0.667352 0.645247
vt 0.584268 0.678755
vt 0.947469 0.624007
vt 0.952765 0.588638
vt 0.966705 0.628671
vt 0.614282 0.616413
vt 0.622486 0.642660
vt 0.709927 0.726958
vt 0.678572 0.685674
vt 0.956930 0.933164
vt 0.955966 0.980829
vt 0.930452 0.976382
vt 0.930648 0.950655
vt 0.935482 0.570151
vt 0.930452 0.621795
vt 0.658838 0.629264
vt 0.629416 0.595901
vt 0.670895 0.665860
vt 0.628418 0.716732
vt 0.954821 0.650243
vt 0.932698 0.663710
vn 0.571012 0.787360 -0.232400
vn 0.463917 0.699998 -0.542940
vn -0.212726 0.975402 0.057777
vn 0.000003 -1.000000 -0.000003
vn 0.000003 -1.000000 -0.000003
vn 0.000002 -1.000000 -0.000002
vn 0.000002 -1.000000 -0.000002
vn -0.429095 0.554659 -0.712903
vn -0.725870 0.609002 -0.319734
vn -0.483401 0.873092 0.063513
vn -0.760748 0.431757 0.484611
vn -0.084640 0.709642 0.699460
vn 0.458871 0.789234 0.408101
vn 0.000002 -1.000000 0.000000
vn 0.000002 -1.000000 0.000000
vn -0.444077 0.486485 -0.752415
vn -0.722462 0.519442 -0.456321
vn 0.123962 0.692692 0.710501
vn -0.785111 0.308661 0.536963
vn 0.611337 0.667520 0.425069
vn 0.636679 0.732686 -0.240440
vn 0.506720 0.649599 -0.566794
vn -0.895959 0.344281 0.280586
vn -0.868666 0.398819 0.293875
s 1
g polySurface194 group14 F_Potato_Chicken_cooked
usemtl aiStandardSurface5SG
f 11/1/1 8/2/2 3/3/3
s 2
f 4/4/4 5/5/5 6/6/6 7/7/7
s 3
f 8/2/8 12/8/9 3/3/10
s 1
f 9/9/11 10/10/12 3/11/3
f 10/12/12 13/13/13 3/3/3
s 2
f 7/7/7 6/6/6 2/14/14 1/15/15
s 3
f 4/16/16 7/17/17 12/18/9 8/19/8
s 1
f 2/20/18 10/10/12 9/9/11 1/21/19
f 6/22/20 13/13/13 10/12/12 2/23/18
f 5/24/21 4/25/22 8/2/2 11/1/1
s 3
f 12/26/9 7/27/17 1/21/23 9/9/24
f 3/11/10 12/26/9 9/9/24
s 1
f 5/24/21 11/1/1 13/13/13 6/22/20
f 3/3/3 13/13/13 11/1/1
g default
v -308.376621 71.786911 1102.554414
v -305.366917 71.786911 1094.985078
v -310.932408 77.014397 1100.790986
v -317.471379 71.786942 1101.063447
v -315.113987 71.786949 1090.946259
v -310.539005 71.786919 1091.511567
v -312.433354 71.786919 1106.723969
v -314.682194 75.831100 1101.664155
v -309.276493 74.485970 1101.864350
v -306.831089 75.033318 1097.008637
v -312.824772 76.969795 1095.826508
v -311.847355 75.595222 1104.489350
v -310.181431 76.786247 1096.191743
vt 0.707944 0.785943
vt 0.693552 0.755991
vt 0.717516 0.759231
vt 0.840444 0.673713
vt 0.853652 0.617030
vt 0.879284 0.620197
vt 0.868671 0.705427
vt 0.708404 0.738037
vt 0.551200 0.647395
vt 0.552426 0.616823
vt 0.569068 0.645577
vt 0.742057 0.785588
vt 0.721395 0.785105
vt 0.908262 0.639658
vt 0.891399 0.682066
vt 0.612747 0.571916
vt 0.611963 0.529467
vt 0.636015 0.536123
vt 0.637049 0.558562
vt 0.533495 0.603851
vt 0.534934 0.649498
vt 0.718922 0.823060
vt 0.752981 0.806508
vt 0.690122 0.822769
vt 0.665045 0.765537
vt 0.560522 0.666756
vt 0.540483 0.681631
vn -0.547757 0.739348 -0.391570
vn -0.774567 0.614752 -0.148746
vn 0.183740 0.965686 0.183548
vn -0.000005 -1.000000 -0.000001
vn -0.000005 -1.000000 -0.000001
vn -0.000004 -1.000000 -0.000001
vn -0.000004 -1.000000 -0.000001
vn -0.624935 0.496214 0.602684
vn -0.133487 0.589314 0.796801
vn 0.220741 0.891083 0.396542
vn 0.841471 0.355356 0.407000
vn 0.778739 0.599968 -0.183313
vn 0.310196 0.758918 -0.572557
vn -0.000002 -1.000000 0.000000
vn -0.000002 -1.000000 0.000000
vn -0.661421 0.414368 0.625157
vn -0.213158 0.504868 0.836464
vn 0.719034 0.586268 -0.373203
vn 0.879725 0.260599 0.397710
vn 0.255768 0.647424 -0.717931
vn -0.532759 0.704733 -0.468530
vn -0.814604 0.552750 -0.175748
vn 0.703922 0.319138 0.634543
vn 0.706582 0.376741 0.599006
s 1
g group14 F_Potato_Chicken_cooked polySurface196
usemtl aiStandardSurface5SG
f 24/28/25 21/29/26 16/30/27
s 2
f 17/31/28 18/32/29 19/33/30 20/34/31
s 3
f 21/29/32 25/35/33 16/30/34
s 1
f 22/36/35 23/37/36 16/38/27
f 23/39/36 26/40/37 16/30/27
s 2
f 20/34/31 19/33/30 15/41/38 14/42/39
s 3
f 17/43/40 20/44/41 25/45/33 21/46/32
s 1
f 15/47/42 23/37/36 22/36/35 14/48/43
f 19/49/44 26/40/37 23/39/36 15/50/42
f 18/51/45 17/52/46 21/29/26 24/28/25
s 3
f 25/53/33 20/54/41 14/48/47 22/36/48
f 16/38/34 25/53/33 22/36/48
s 1
f 18/51/45 24/28/25 26/40/37 19/49/44
f 16/30/27 26/40/37 24/28/25
g default
v -332.185154 71.786911 1097.531709
v -337.424504 71.786911 1091.968964
v -334.310185 77.014397 1099.980683
v -335.907414 71.786942 1107.575288
v -343.372929 71.786942 1102.055024
v -341.648625 71.786919 1096.951508
v -329.965153 71.786919 1103.354340
v -334.650791 75.831100 1104.534882
v -332.988804 74.485970 1098.374848
v -336.206974 75.033318 1094.214448
v -338.820255 76.969795 1100.778046
v -331.595829 75.595222 1102.060029
v -337.793034 76.786247 1097.840180
vt 0.755144 0.732322
vt 0.774349 0.708694
vt 0.779706 0.736426
vt 0.783032 0.871546
vt 0.741205 0.840618
vt 0.750866 0.812024
vt 0.816324 0.847897
vt 0.793960 0.720910
vt 0.754015 0.890839
vt 0.761240 0.862124
vt 0.771469 0.896456
vt 0.762713 0.771160
vt 0.759121 0.747548
vt 0.774532 0.784109
vt 0.803886 0.815275
vt 0.756817 0.957842
vt 0.736589 0.922365
vt 0.759106 0.913182
vt 0.770537 0.932057
vt 0.745383 0.845266
vt 0.737898 0.887458
vt 0.724717 0.755659
vt 0.746057 0.787593
vt 0.718126 0.723042
vt 0.756896 0.683410
vn -0.593285 0.745209 0.304427
vn -0.424177 0.650445 0.630076
vn 0.233670 0.967922 -0.092332
vn -0.000002 -1.000000 0.000003
vn -0.000002 -1.000000 0.000003
vn -0.000002 -1.000000 0.000003
vn -0.000002 -1.000000 0.000003
vn 0.533186 0.489868 0.689741
vn 0.789459 0.549216 0.274073
vn 0.524763 0.844272 -0.108759
vn 0.723628 0.383123 -0.574090
vn -0.023352 0.657963 -0.752688
vn -0.550945 0.735959 -0.393478
vn -0.000001 -1.000000 0.000003
vn -0.000001 -1.000000 0.000003
vn 0.547787 0.424166 0.721119
vn 0.802382 0.455491 0.385632
vn -0.198981 0.630844 -0.749961
vn 0.733509 0.272422 -0.622696
vn -0.697668 0.602283 -0.387962
vn -0.652523 0.682324 0.329618
vn -0.463206 0.597779 0.654294
vn 0.878551 0.303048 -0.369202
vn 0.854675 0.351504 -0.382069
s 1
g group14 F_Potato_Chicken_cooked polySurface192
usemtl aiStandardSurface5SG
f 37/55/49 34/56/50 29/57/51
s 2
f 30/58/52 31/59/53 32/60/54 33/61/55
s 3
f 34/56/56 38/62/57 29/57/58
s 1
f 35/63/59 36/64/60 29/65/51
f 36/66/60 39/67/61 29/57/51
s 2
f 33/61/55 32/60/54 28/68/62 27/69/63
s 3
f 30/70/64 33/71/65 38/72/57 34/73/56
s 1
f 28/74/66 36/64/60 35/63/59 27/75/67
f 32/76/68 39/67/61 36/66/60 28/77/66
f 31/78/69 30/79/70 34/56/50 37/55/49
s 3
f 38/72/57 33/71/65 27/75/71 35/63/72
f 29/65/58 38/72/57 35/63/72
s 1
f 31/78/69 37/55/49 39/67/61 32/76/68
f 29/57/51 39/67/61 37/55/49
g default
v -337.933018 71.864220 1089.407563
v -333.460545 71.864220 1093.829804
v -336.233494 76.194199 1087.306123
v -335.096043 71.864243 1080.963837
v -328.781834 71.864250 1085.273286
v -330.085026 71.864227 1089.558076
v -339.912358 71.864227 1084.665131
v -336.062321 75.214058 1083.524384
v -337.288243 74.099876 1088.681611
v -334.523045 74.553246 1092.013398
v -332.519474 76.157249 1086.489106
v -338.530979 75.018684 1085.679780
v -333.298313 76.005219 1088.956879
vt 0.900598 0.588544
vt 0.884092 0.607400
vt 0.880370 0.584279
vt 0.807423 0.855767
vt 0.842800 0.879912
vt 0.835498 0.903918
vt 0.780439 0.876505
vt 0.868139 0.596597
vt 0.736552 0.567376
vt 0.744100 0.544198
vt 0.750691 0.573024
vt 0.895324 0.556069
vt 0.897676 0.575790
vt 0.816586 0.927851
vt 0.791529 0.903075
vt 0.735164 0.622998
vt 0.720434 0.592318
vt 0.739544 0.586042
vt 0.747942 0.602405
vt 0.731928 0.529439
vt 0.723412 0.563666
vt 0.926393 0.570160
vt 0.909535 0.542954
vt 0.930982 0.597430
vt 0.897863 0.628850
vn 0.582006 0.746950 -0.321458
vn 0.398411 0.653031 -0.644065
vn -0.229588 0.968058 0.100766
vn 0.000002 -1.000000 -0.000002
vn 0.000002 -1.000000 -0.000002
vn 0.000002 -1.000000 -0.000002
vn 0.000002 -1.000000 -0.000002
vn -0.559414 0.486945 -0.670776
vn -0.798145 0.547992 -0.250338
vn -0.519259 0.845837 0.122189
vn -0.702753 0.385188 0.598138
vn 0.054856 0.657812 0.751182
vn 0.565487 0.733884 0.376350
vn 0.000001 -1.000000 -0.000001
vn 0.000001 -1.000000 -0.000001
vn -0.574888 0.422005 -0.701010
vn -0.815344 0.453724 -0.359652
vn 0.228556 0.629502 0.742624
vn -0.710987 0.274022 0.647618
vn 0.711360 0.600292 0.365535
vn 0.639298 0.684075 -0.351196
vn 0.437039 0.600051 -0.670027
vn -0.866133 0.304349 0.396465
vn -0.841750 0.352810 0.408635
s 1
g group14 F_Potato_Chicken_cooked polySurface190
usemtl aiStandardSurface5SG
f 50/80/73 47/81/74 42/82/75
s 2
f 43/83/76 44/84/77 45/85/78 46/86/79
s 3
f 47/81/80 51/87/81 42/82/82
s 1
f 48/88/83 49/89/84 42/90/75
f 49/91/84 52/92/85 42/82/75
s 2
f 46/86/79 45/85/78 41/93/86 40/94/87
s 3
f 43/95/88 46/96/89 51/97/81 47/98/80
s 1
f 41/99/90 49/89/84 48/88/83 40/100/91
f 45/101/92 52/92/85 49/91/84 41/102/90
f 44/103/93 43/104/94 47/81/74 50/80/73
s 3
f 51/97/81 46/96/89 40/100/95 48/88/96
f 42/90/82 51/97/81 48/88/96
s 1
f 44/103/93 50/80/73 52/92/85 45/101/92
f 42/82/75 52/92/85 50/80/73
g default
v -329.333042 71.824158 1084.633515
v -321.429875 71.824165 1085.514008
v -328.762333 77.748596 1080.690644
v -331.555363 71.824196 1072.468720
v -321.641483 71.824203 1071.524506
v -320.359532 71.824173 1077.571870
v -334.622349 71.824173 1081.093354
v -331.001286 76.407532 1076.255341
v -329.070683 74.883072 1083.218232
v -323.799992 75.503395 1084.438691
v -325.087101 77.698044 1076.343842
v -332.407231 76.140213 1080.968110
v -324.380680 77.490036 1079.852876
vt 0.625828 0.820077
vt 0.593535 0.823470
vt 0.607824 0.797033
vt 0.668027 0.887561
vt 0.662737 0.832017
vt 0.696618 0.824835
vt 0.716348 0.904745
vt 0.586576 0.793167
vt 0.606442 0.776250
vt 0.640241 0.776355
vt 0.630958 0.802555
vt 0.741115 0.830832
vt 0.736182 0.875110
vt 0.713256 0.974220
vt 0.711202 0.922976
vt 0.738142 0.926653
vt 0.740045 0.954182
vt 0.942963 0.731482
vt 0.963758 0.745803
vt 0.960931 0.776182
vt 0.941991 0.776024
vt 0.667396 0.820053
vt 0.665566 0.772262
vt 0.652810 0.856103
vt 0.592140 0.859238
vt 0.970954 0.797572
vt 0.947462 0.811261
vn 0.286391 0.774337 -0.564254
vn -0.109881 0.678781 -0.726073
vn -0.111057 0.969548 0.218272
vn -0.000000 -1.000000 -0.000005
vn -0.000000 -1.000000 -0.000005
vn -0.000000 -1.000000 -0.000004
vn -0.000000 -1.000000 -0.000004
vn -0.851313 0.448712 -0.271889
vn -0.827126 0.540156 0.155221
vn -0.365995 0.881086 0.299559
vn -0.190581 0.409011 0.892406
vn 0.518103 0.634483 0.573586
vn 0.702083 0.710466 0.048146
vn 0.000000 -1.000000 -0.000002
vn 0.000000 -1.000000 -0.000002
vn -0.875376 0.389950 -0.285755
vn -0.890130 0.443377 0.105289
vn 0.645847 0.592731 0.481198
vn -0.164003 0.296464 0.940857
vn 0.809547 0.585578 -0.041615
vn 0.297322 0.719226 -0.627944
vn -0.092561 0.617339 -0.781233
vn -0.491538 0.333189 0.804597
vn -0.459146 0.384975 0.800612
s 1
g group14 F_Potato_Chicken_cooked polySurface188
usemtl aiStandardSurface5SG
f 63/105/97 60/106/98 55/107/99
s 2
f 56/108/100 57/109/101 58/110/102 59/111/103
s 3
f 60/106/104 64/112/105 55/107/106
s 1
f 61/113/107 62/114/108 55/107/99
f 62/114/108 65/115/109 55/107/99
s 2
f 59/111/103 58/110/102 54/116/110 53/117/111
s 3
f 56/118/112 59/119/113 64/120/105 60/121/104
s 1
f 54/122/114 62/123/108 61/124/107 53/125/115
f 58/126/116 65/115/109 62/114/108 54/127/114
f 57/128/117 56/129/118 60/106/98 63/105/97
s 3
f 64/130/105 59/131/113 53/125/119 61/124/120
f 55/107/106 64/112/105 61/113/120
s 1
f 57/128/117 63/105/97 65/115/109 58/126/116
f 55/107/99 65/115/109 63/105/97
