# This file uses meters as units for non-parametric coordinates.

mtllib Rice.mtl
g default
v -271.656917 78.747380 58.226348
v -272.475686 78.245543 56.562467
v -273.551662 78.640826 58.165345
v -280.254390 76.559153 57.010418
v -280.342586 75.918339 55.191558
v -281.648908 75.412169 56.368950
v -278.518687 74.015044 54.143549
v -281.218414 73.374978 55.077833
v -281.908090 74.887650 55.906599
v -280.441117 75.364054 54.822570
v -277.486828 71.896232 54.105467
v -278.894652 71.297485 55.384260
v -280.068775 72.861503 55.122616
v -278.067639 73.700307 54.098189
v -277.438723 71.007252 54.200666
v -277.469246 69.656947 55.535206
v -278.831553 70.968618 55.364992
v -272.380299 69.355651 55.881573
v -271.615350 70.722934 54.712980
v -270.556342 69.853318 56.031660
v -266.629631 74.400097 55.339109
v -265.399426 74.202279 56.725039
v -266.364946 72.691226 56.310443
v -269.281982 72.377689 54.875634
v -269.682872 77.657178 56.220967
v -266.159775 77.719471 57.655489
v -265.132978 76.308023 57.244312
v -266.404424 76.526338 55.906672
v -273.633531 78.333883 59.362700
v -272.770721 77.201692 60.726213
v -271.754527 78.390348 59.618304
v -281.785727 74.905069 58.345912
v -280.663257 74.767972 59.788941
v -280.364003 76.176908 58.489955
v -280.821492 74.045759 59.865792
v -282.067246 74.272912 58.446094
v -281.480875 72.463968 58.652178
v -278.927898 72.482192 60.102734
v -278.488201 72.177473 60.050813
v -280.284108 71.978888 58.526416
v -279.050299 70.732415 57.612371
v -277.848433 70.597475 59.220586
v -278.975371 70.430582 57.449071
v -277.553339 69.329202 56.811354
v -277.747966 69.831566 58.648311
v -270.652227 69.501079 57.401312
v -271.900243 69.644417 58.824436
v -272.459695 69.057260 57.043909
v -269.569579 71.112934 59.852984
v -266.572917 71.958852 59.129709
v -265.601070 73.457681 59.645567
v -267.005827 73.003048 60.789441
v -266.780082 75.128733 61.344506
v -265.341274 75.531781 60.232853
v -266.384464 76.998246 60.489108
v -270.000974 76.397907 61.156660
vt 0.375000 0.555437
vt 0.623679 0.312500
vt 0.619724 0.438402
vt 0.609766 0.312500
vt 0.375648 0.312500
vt 0.492750 0.020934
vt 0.477974 0.020934
vt 0.475560 0.020934
vt 0.434429 0.069592
vt 0.461038 0.020934
vt 0.598877 0.097685
vt 0.437079 0.315167
vt 0.424056 0.389837
vt 0.385958 0.134237
vt 0.424318 0.081144
vt 0.576138 0.242648
vt 0.446198 0.312500
vt 0.452957 0.312500
vt 0.445964 0.460979
vt 0.463561 0.312500
vt 0.464924 0.430953
vt 0.501782 0.312500
vt 0.517095 0.312500
vt 0.548129 0.312500
vt 0.568881 0.312500
vt 0.551105 0.398378
vt 0.589754 0.414821
vt 0.377237 0.567495
vt 0.393452 0.580484
vt 0.394796 0.688440
vt 0.623803 0.677641
vt 0.606526 0.688440
vt 0.589910 0.612904
vt 0.493783 0.979066
vt 0.478226 0.979066
vt 0.614753 0.825870
vt 0.599208 0.902173
vt 0.423963 0.612073
vt 0.431398 0.607184
vt 0.437500 0.685858
vt 0.504741 0.742199
vt 0.445855 0.688440
vt 0.445909 0.600998
vt 0.448645 0.606541
vt 0.452651 0.688440
vt 0.464949 0.567231
vt 0.494276 0.564835
vt 0.498069 0.688440
vt 0.504202 0.688440
vt 0.505895 0.592895
vt 0.535537 0.608911
vt 0.520450 0.688440
vt 0.548393 0.688440
vt 0.551151 0.602141
vt 0.571612 0.604547
vt 0.569067 0.688440
vt 0.377240 0.436225
vt 0.393435 0.422343
vt 0.431270 0.395466
vt 0.494270 0.435688
vt 0.505902 0.440699
vt 0.535626 0.411766
vt 0.571696 0.395790
vt 0.619730 0.591015
vt 0.570897 0.046519
vt 0.570985 0.954119
vt 0.478813 0.979066
vt 0.460546 0.979066
vt 0.448621 0.450698
vt 0.402937 0.440493
vt 0.407699 0.438884
vt 0.407424 0.612078
vt 0.386011 0.866079
vt 0.371982 0.845441
vt 0.439695 0.740410
vt 0.434324 0.930302
vt 0.424470 0.919051
vt 0.576187 0.757389
vt 0.503762 0.257144
vt 0.440160 0.259021
vt 0.372575 0.153809
vt 0.614766 0.174051
vt 0.375000 0.415693
vt 0.394847 0.330297
vt 0.423759 0.342230
vt 0.436499 0.330565
vt 0.437358 0.315061
vt 0.498137 0.329309
vt 0.537464 0.312500
vt 0.576261 0.327053
vt 0.375620 0.677251
vt 0.402934 0.613475
vt 0.423649 0.656325
vt 0.437106 0.685776
vt 0.437500 0.667881
vt 0.462969 0.646615
vt 0.538660 0.688440
vt 0.576357 0.671326
vn 0.152254 0.988306 0.008411
vn -0.242913 0.963312 -0.114118
vn -0.288197 0.803925 0.520237
vn 0.115464 0.869715 0.479858
vn -0.083614 0.933270 -0.349308
vn 0.291364 0.809671 -0.509450
vn 0.167070 0.905213 -0.390738
vn -0.285128 0.890356 -0.354920
vn -0.328901 0.937365 -0.114762
vn -0.742311 0.667325 -0.060431
vn -0.765795 0.581671 0.274256
vn -0.373141 0.783720 0.496536
vn -0.623527 0.596343 -0.505558
vn -0.623527 0.596343 -0.505558
vn 0.045036 0.396737 -0.916827
vn 0.020559 0.465486 -0.884816
vn 0.031045 0.439086 -0.897909
vn 0.066361 0.327205 -0.942620
vn -0.225861 -0.435911 -0.871188
vn -0.225861 -0.435911 -0.871188
vn -0.396589 -0.332442 -0.855687
vn -0.358660 -0.357471 -0.862309
vn -0.932278 -0.330616 -0.146801
vn -0.932278 -0.330616 -0.146801
vn -0.932278 -0.330616 -0.146801
vn -0.932278 -0.330616 -0.146801
vn 0.096104 0.029864 -0.994923
vn 0.092751 0.177889 -0.979670
vn 0.091732 0.197797 -0.975941
vn 0.097217 0.053893 -0.993803
vn -0.490716 -0.258539 -0.832079
vn -0.480863 -0.267384 -0.835031
vn -0.639878 -0.105895 -0.761145
vn -0.639878 -0.105895 -0.761145
vn -0.584638 -0.775483 -0.238379
vn -0.793776 -0.574310 -0.200219
vn -0.791636 -0.577068 -0.200763
vn -0.583102 -0.776582 -0.238564
vn 0.021094 -0.680674 -0.732283
vn 0.021094 -0.680674 -0.732283
vn 0.203892 -0.641219 -0.739775
vn 0.044661 -0.830228 -0.555632
vn -0.628697 -0.698656 -0.341496
vn -0.636655 -0.703659 -0.315492
vn -0.647403 -0.747202 -0.150194
vn -0.697267 -0.715557 0.042387
vn 0.494031 -0.762671 -0.417452
vn 0.459923 -0.886323 0.053865
vn 0.000122 -0.996893 0.078772
vn 0.439784 -0.521801 -0.730967
vn 0.502509 -0.414409 -0.758782
vn 0.671938 -0.106292 -0.732940
vn 0.626242 -0.200356 -0.753444
vn 0.740249 0.085271 -0.666904
vn 0.740249 0.085271 -0.666904
vn 0.678460 -0.721619 -0.137689
vn 0.948996 -0.314956 -0.014442
vn 0.949366 -0.313854 -0.014137
vn 0.678793 -0.721324 -0.137589
vn 0.816825 0.541133 0.199931
vn 0.816825 0.541133 0.199931
vn 0.816825 0.541133 0.199931
vn 0.816825 0.541133 0.199931
vn -0.164674 0.664863 0.728588
vn -0.361602 0.633149 0.684373
vn 0.073781 0.606985 0.791281
vn 0.189981 0.447953 0.873639
vn -0.711772 0.313260 0.628688
vn -0.711772 0.313260 0.628688
vn -0.116308 0.010673 0.993156
vn -0.091036 -0.077195 0.992851
vn -0.069359 -0.158243 0.984961
vn -0.105140 -0.025079 0.994141
vn -0.321970 -0.785884 0.527940
vn -0.321970 -0.785884 0.527940
vn -0.449064 -0.721904 0.526495
vn -0.482921 -0.701436 0.524190
vn -0.040253 -0.324318 0.945091
vn -0.033143 -0.476353 0.878629
vn -0.032717 -0.451570 0.891636
vn -0.041541 -0.303801 0.951829
vn -0.566598 -0.639061 0.520162
vn -0.580803 -0.626288 0.520030
vn -0.671793 -0.645632 0.363117
vn -0.050998 -0.954837 0.292720
vn -0.050998 -0.954837 0.292720
vn 0.128815 -0.930339 0.343332
vn 0.415295 -0.751510 0.512604
vn 0.359176 -0.830172 0.426389
vn 0.533751 -0.560670 0.633055
vn 0.577827 -0.469875 0.667333
vn 0.647035 -0.268871 0.713480
vn 0.647035 -0.268871 0.713480
vn -0.386124 -0.886688 -0.254348
vn -0.386124 -0.886688 -0.254348
vn -0.040174 -0.967145 -0.251030
vn -0.040174 -0.967145 -0.251030
vn 0.990419 -0.133770 0.034281
vn 0.990419 -0.133770 0.034281
vn 0.203331 0.944883 0.256618
vn 0.203331 0.944883 0.256618
vn -0.002990 0.522942 -0.852363
vn -0.002990 0.522942 -0.852363
vn -0.140000 0.088265 0.986209
vn -0.140000 0.088265 0.986209
vn -0.976893 -0.180732 -0.114084
vn -0.976893 -0.180732 -0.114084
vn -0.910154 0.412061 0.042714
vn -0.910154 0.412061 0.042714
vn -0.034417 -0.559121 0.828371
vn -0.034417 -0.559121 0.828371
vn 0.091680 -0.055998 -0.994213
vn 0.091680 -0.055998 -0.994213
vn -0.448269 0.060727 -0.891834
vn -0.448269 0.060727 -0.891834
vn -0.448269 0.060727 -0.891834
vn -0.448269 0.060727 -0.891834
vn -0.502177 -0.602112 -0.620709
vn 0.348793 0.750751 -0.560995
vn 0.348793 0.750752 -0.560995
vn -0.580703 -0.329204 0.744586
vn -0.580703 -0.329204 0.744586
vn -0.580703 -0.329204 0.744586
vn -0.580703 -0.329204 0.744586
vn 0.245360 0.359940 0.900134
vn 0.245360 0.359940 0.900134
s 1
g F_Rice F_Vagetables
usemtl aiStandardSurface12SG
f 1/83/1 3/57/2 29/28/3 31/1/4
f 2/2/5 1/3/1 26/27/6 25/4/7
f 3/57/2 2/5/5 5/84/8 4/58/9
f 4/58/9 6/70/10 32/92/11 34/29/12
f 6/6/10 5/7/8 10/10/13 9/8/14
s 2
f 7/9/15 10/10/16 25/11/17 28/82/18
s 3
f 8/13/19 7/12/20 14/87/21 13/59/22
s off
f 9/71/23 8/13/24 37/38/25 36/72/26
s 2
f 11/14/27 14/15/28 21/16/29 24/79/30
s 3
f 12/19/31 11/17/32 15/18/33 17/69/34
s 4
f 13/59/35 12/19/36 41/43/37 40/39/38
s 5
f 16/21/39 15/20/40 19/88/41 18/60/42
s 6
f 17/69/43 16/21/44 44/46/45 43/44/46
s 5
f 18/60/42 20/61/47 46/50/48 48/47/49
f 20/61/47 19/22/41 24/23/50 23/62/51
f 22/26/52 21/24/53 28/25/54 27/63/55
f 23/62/56 22/26/57 51/54/58 50/51/59
s off
f 27/63/60 26/27/61 55/33/62 54/55/63
s 1
f 30/91/64 29/28/3 34/29/12 33/30/65
f 31/64/4 30/31/64 56/32/66 55/33/67
f 33/67/65 32/34/11 36/35/68 35/68/69
s 8
f 35/68/70 38/76/71 53/36/72 56/37/73
s 6
f 38/94/74 37/38/75 40/39/76 39/40/77
s 8
f 39/77/78 42/73/79 49/41/80 52/78/81
s 6
f 42/42/82 41/43/83 43/44/46 45/45/84
s 5
f 45/96/85 44/46/86 48/47/49 47/48/87
f 47/49/87 46/50/48 50/51/88 49/52/89
f 52/53/90 51/54/91 54/55/92 53/56/93
s 1
f 3/57/2 4/58/9 34/29/12 29/28/3
s 4
f 8/13/94 13/59/35 40/39/38 37/38/95
s 5
f 16/21/96 18/60/42 48/47/49 44/46/97
f 20/61/47 23/62/56 50/51/59 46/50/48
f 22/26/57 27/63/98 54/55/99 51/54/58
s 1
f 26/27/100 1/3/1 31/64/4 55/33/101
s 2
f 25/11/17 10/10/16 5/7/102 2/65/103
s 8
f 56/37/73 30/66/104 33/67/105 35/68/70
s 4
f 12/19/36 17/69/106 43/44/107 41/43/37
s 1
f 6/70/10 9/71/108 36/72/109 32/92/11
s 8
f 49/41/80 42/73/79 45/74/110 47/75/111
f 53/36/72 38/76/71 39/77/78 52/78/81
s 2
f 24/79/30 19/80/112 15/81/113 11/14/27
f 21/16/29 14/15/28 7/9/15 28/82/18
s 1
f 1/83/1 2/5/5 3/57/2
f 4/58/9 5/84/8 6/70/10
s off
f 7/12/114 8/13/115 9/71/116 10/85/117
s 3
f 11/86/32 12/19/31 13/59/22 14/87/21
s 6
f 15/20/118 16/21/44 17/69/43
s 5
f 18/60/42 19/88/41 20/61/47
f 21/89/53 22/26/52 23/62/51 24/23/50
s 1
f 25/90/7 26/27/6 27/63/119 28/25/120
f 29/28/3 30/91/64 31/1/4
f 32/92/11 33/30/65 34/29/12
s off
f 35/93/121 36/72/122 37/38/123 38/94/124
s 6
f 39/40/77 40/39/76 41/43/83 42/95/82
f 43/44/46 44/46/45 45/96/84
s 5
f 46/50/48 47/48/87 48/47/49
f 49/52/89 50/51/88 51/54/91 52/97/90
s 1
f 53/56/125 54/55/126 55/33/67 56/98/66
