# This file uses meters as units for non-parametric coordinates.

mtllib TE_tomato.mtl
g default
v -395.607330 76.588908 798.696287
v -395.035858 76.707436 798.414976
v -395.788360 76.778979 798.519346
v -393.779480 76.606614 797.097349
v -394.304840 76.707436 797.391600
v -392.386016 76.071741 797.487547
v -383.646331 71.624369 804.807554
v -386.179626 71.624369 797.207701
v -388.149963 75.482958 799.178038
v -386.179626 76.833468 804.807554
v -394.746887 77.506930 801.509703
v -395.635467 76.958476 809.261900
v -394.381164 71.624369 814.740172
v -386.179626 71.624369 812.407408
v -388.149963 75.482958 810.437071
v -387.365844 71.624369 796.812315
v -388.953918 73.568118 797.606322
v -403.510864 78.159814 809.956175
v -402.688202 76.833468 816.861754
v -401.394043 71.624369 818.963682
vt 0.318469 0.175313
vt 0.316925 0.171355
vt 0.318926 0.172213
vt 0.324127 0.207356
vt 0.314624 0.183475
vt 0.315084 0.180333
vt 0.032342 0.064769
vt 0.036089 0.029497
vt 0.062613 0.037863
vt 0.067810 0.065186
vt 0.335479 0.173858
vt 0.350167 0.215289
vt 0.410089 0.062934
vt 0.447762 0.065424
vt 0.439979 0.092125
vt 0.407715 0.105371
vt 0.061972 0.092379
vt 0.035259 0.100119
vt 0.164975 0.081906
vt 0.140920 0.063306
vt 0.173392 0.044064
vt 0.224208 0.082216
vt 0.217018 0.046689
vt 0.255885 0.029487
vt 0.258907 0.075302
vt 0.073944 0.035944
vt 0.100998 0.029494
vt 0.101188 0.035027
vt 0.087655 0.041054
vt 0.071574 0.056357
vt 0.068474 0.062943
vt 0.372558 0.173077
vt 0.378703 0.208415
vn 0.160151 0.750038 0.641712
vn 0.160151 0.750038 0.641712
vn 0.160151 0.750038 0.641712
vn 0.192827 0.981199 0.008107
vn 0.192827 0.981199 0.008107
vn 0.192827 0.981199 0.008107
vn 0.863686 0.504030 -0.000001
vn 0.725670 0.506840 -0.465312
vn 0.515215 0.762917 -0.390526
vn 0.478351 0.877609 0.031344
vn 0.175704 0.954379 -0.241431
vn 0.175704 0.954379 -0.241431
vn 0.175704 0.954379 -0.241431
vn 0.175704 0.954379 -0.241431
vn 0.116536 0.649622 0.751273
vn 0.466266 0.630415 0.620623
vn 0.333890 0.810612 0.481067
vn 0.116536 0.649622 0.751273
vn 0.163074 0.972321 0.167326
vn 0.468635 0.685716 0.556934
vn 0.460229 0.700066 0.545983
vn 0.522341 0.577410 0.627502
vn 0.522340 0.577410 0.627502
vn 0.327476 0.508074 -0.796631
vn 0.327475 0.508074 -0.796631
vn 0.327475 0.508074 -0.796631
vn 0.327476 0.508074 -0.796631
vn 0.087559 0.983505 0.158273
vn 0.087559 0.983505 0.158273
s off
g polySurface285 group22 F_Tomato_Egg_cooked
usemtl aiStandardSurface2SG
f 2/1/1 3/2/2 1/3/3
f 9/4/4 4/5/5 5/6/6
s 1
f 7/7/7 8/8/8 9/9/9 10/10/10
f 11/11/11 10/12/10 9/4/9 5/6/12 2/1/13 1/3/14
f 13/13/15 14/14/16 15/15/17 12/16/18
f 15/17/17 14/18/16 7/7/7 10/10/10
s 2
f 18/19/19 19/20/20 12/21/21
f 20/22/22 13/23/23 12/24/21 19/25/20
s 1
f 9/26/9 8/27/8 16/28/24 17/29/25 6/30/26 4/31/27
f 10/12/10 11/11/28 12/32/29 15/33/17
g default
v -402.548828 76.375916 780.628416
v -402.576843 76.833468 780.837889
v -385.428070 71.624369 790.999022
v -387.961364 71.624369 783.399168
v -402.873138 78.493242 788.409910
v -389.931701 75.482958 785.369505
v -395.561218 78.569842 790.999022
v -387.961364 76.833468 790.999022
v -389.931701 75.482958 796.628538
v -400.531067 71.624369 778.986510
v -394.976989 71.624369 780.837889
v -394.893463 71.624369 781.088438
v -396.947326 75.482958 782.808226
v -397.417205 77.391000 788.437742
v -388.953918 73.568118 797.606322
v -387.365844 71.624369 796.812315
v -395.788360 76.778979 798.519346
v -395.035858 76.707436 798.414976
v -394.304840 76.707436 797.391600
v -393.779480 76.606614 797.097349
v -392.386016 76.071741 797.487547
v -403.510864 78.137751 793.052489
v -397.148224 77.114488 795.147093
vt 0.260068 0.216019
vt 0.247815 0.213422
vt 0.244972 0.179691
vt 0.270130 0.189177
vt 0.293297 0.056756
vt 0.297644 0.029497
vt 0.298814 0.029497
vt 0.371583 0.064784
vt 0.375123 0.029491
vt 0.401696 0.037702
vt 0.407053 0.064993
vt 0.279730 0.226129
vt 0.283734 0.182251
vt 0.298241 0.217190
vt 0.401375 0.092220
vt 0.388141 0.096139
vt 0.373973 0.091811
vt 0.316430 0.205491
vt 0.316925 0.171355
vt 0.318469 0.175313
vt 0.315084 0.180333
vt 0.314624 0.183475
vt 0.317927 0.191824
vt 0.152536 0.042868
vt 0.140739 0.045670
vt 0.155939 0.029492
vt 0.239817 0.108399
vt 0.266840 0.101819
vt 0.268050 0.127713
vt 0.236177 0.135386
vt 0.233076 0.135382
vt 0.086540 0.130394
vt 0.113672 0.124278
vt 0.114384 0.156624
vt 0.087636 0.163445
vt 0.245984 0.157792
vt 0.296540 0.167730
vn 0.312847 0.770704 -0.555105
vn 0.306103 0.802168 -0.512668
vn 0.250645 0.938116 -0.238986
vn 0.250645 0.938116 -0.238986
vn 0.797040 0.542394 -0.265588
vn 0.344312 0.490406 -0.800595
vn 0.864767 0.502096 -0.008793
vn 0.596867 0.537645 -0.595557
vn 0.423955 0.763820 -0.486662
vn 0.526929 0.848703 -0.045267
vn 0.214224 0.799897 -0.560600
vn 0.125633 0.990246 -0.060251
vn 0.525534 0.792157 0.310326
vn 0.817358 0.471995 0.330373
vn 0.817358 0.471995 0.330373
vn 0.207029 0.941486 0.265975
vn 0.243911 0.934937 0.257684
vn 0.243911 0.934937 0.257684
vn 0.243911 0.934937 0.257684
vn 0.243911 0.934937 0.257684
vn 0.389868 0.568876 0.724143
vn 0.389868 0.568876 0.724143
vn 0.389868 0.568876 0.724143
vn 0.333483 0.486887 -0.807298
vn 0.333483 0.486887 -0.807298
vn 0.279841 0.529011 -0.801147
vn 0.196499 0.975219 0.101665
vn 0.196499 0.975219 0.101665
vn 0.196499 0.975219 0.101665
vn -0.137548 0.933857 -0.330138
vn -0.137548 0.933857 -0.330138
vn -0.054054 0.948510 0.312099
vn -0.054054 0.948510 0.312099
s 1
g group22 F_Tomato_Egg_cooked polySurface280
usemtl aiStandardSurface2SG
f 33/34/30 22/35/31 25/36/32 34/37/33
f 33/38/30 32/39/34 31/40/35
s 2
f 23/41/36 24/42/37 26/43/38 28/44/39
f 26/45/38 33/34/40 27/46/41 28/47/39
f 23/41/36 28/44/39 29/48/42 35/49/43 36/50/44
f 29/51/42 28/47/39 27/46/41 37/52/45 38/53/46 39/54/47 40/55/48 41/56/49
s off
f 29/57/50 41/58/51 35/59/52
s 1
f 33/60/30 31/61/35 30/62/53 21/63/54 22/64/31
s 2
f 26/65/38 24/66/37 32/67/55 33/68/40
s off
f 34/37/56 25/36/57 42/69/58
s 2
f 34/37/59 42/69/60 27/46/41 33/34/40
f 27/46/41 42/69/61 43/70/62 37/52/45
g default
v -432.893951 71.624364 786.517210
v -430.923614 75.482958 788.487547
v -435.427276 71.624364 794.117064
v -432.893951 76.833468 794.117064
v -423.239837 75.482958 782.140074
v -426.630035 71.624364 784.429198
v -425.210174 71.624364 780.169737
v -424.737335 76.941507 787.769591
v -416.687530 78.358994 787.769591
v -417.610321 76.833468 780.169737
v -418.027496 71.624364 777.775450
v -430.605316 71.624364 802.479796
v -427.574432 75.629861 801.238096
v -424.363128 76.613297 801.377257
v -421.012664 78.549123 795.280455
v -418.859161 76.878263 793.424986
v -417.610321 77.349825 793.109434
vt 0.330171 0.149199
vt 0.310099 0.169750
vt 0.291741 0.140564
vt 0.320252 0.120577
vt 0.410862 0.062905
vt 0.403700 0.036030
vt 0.457312 0.029494
vt 0.439984 0.063926
vt 0.178957 0.218273
vt 0.207332 0.228987
vt 0.213703 0.245182
vt 0.200055 0.253672
vt 0.439292 0.111597
vt 0.436117 0.140660
vt 0.409618 0.132215
vt 0.401693 0.104173
vt 0.364557 0.112014
vt 0.359691 0.145183
vt 0.333521 0.135767
vt 0.329429 0.108257
vt 0.218018 0.065453
vt 0.191756 0.057431
vt 0.184900 0.030477
vt 0.204756 0.029496
vt 0.269208 0.107910
vt 0.294021 0.087329
vt 0.300454 0.071862
vt 0.334764 0.071300
vt 0.168931 0.253121
vt 0.165399 0.248509
vt 0.174550 0.269950
vn -0.412519 0.794468 -0.445701
vn -0.577955 0.557345 -0.596099
vn -0.622157 0.753237 0.213435
vn -0.489095 0.858468 0.154332
vn -0.329989 0.931708 0.151747
vn -0.173393 0.917928 -0.356852
vn -0.224157 0.948533 -0.223693
vn -0.285975 0.821165 -0.493869
vn -0.441613 0.757380 -0.480992
vn -0.224157 0.948533 -0.223693
vn -0.244017 0.560693 -0.791251
vn -0.327926 0.478438 -0.814593
vn -0.563134 0.526190 -0.637184
vn -0.797827 0.516180 -0.311498
vn -0.797827 0.516180 -0.311498
vn -0.477628 0.780453 0.403442
vn -0.477628 0.780453 0.403442
vn -0.477628 0.780453 0.403442
vn -0.189982 0.965190 0.179762
vn -0.189982 0.965190 0.179762
vn -0.189982 0.965190 0.179762
vn -0.189982 0.965190 0.179762
vn 0.356950 0.861388 -0.361383
s 1
g group22 F_Tomato_Egg_cooked polySurface270
usemtl aiStandardSurface2SG
f 45/71/63 44/72/64 46/73/65 47/74/66
f 45/75/63 47/76/66 58/77/67 51/78/68
s 2
f 52/79/69 53/80/70 48/81/71 51/82/72
s 1
f 49/83/73 44/84/64 45/85/63 51/86/68
s 2
f 54/87/74 50/88/75 48/89/71 53/90/70
f 51/91/76 48/92/71 50/93/75 49/94/77
s 1
f 47/74/66 46/73/65 55/95/78 56/96/79 57/97/80 58/98/67
s off
f 52/79/81 51/82/82 59/99/83 60/100/84
s 1
f 59/99/85 51/82/68 58/101/67
g default
v -415.383148 76.387332 810.217955
v -409.481109 71.624369 822.958616
v -417.080963 71.624369 820.425291
v -417.080963 76.833468 812.825438
v -401.881256 71.624369 820.425291
v -409.481109 78.569842 812.825438
v -418.756988 71.624369 815.397215
v -409.767334 77.322381 807.766173
v -403.510864 78.159814 809.956175
v -404.033783 77.325273 812.825438
v -401.394043 71.624369 818.963682
v -402.688202 76.833468 816.861754
vt 0.105026 0.112720
vt 0.070054 0.074598
vt 0.092356 0.048900
vt 0.134494 0.098277
vt 0.140920 0.063306
vt 0.152056 0.077695
vt 0.118850 0.029483
vt 0.258907 0.075302
vt 0.224188 0.089037
vt 0.224208 0.082216
vt 0.067635 0.154948
vt 0.032342 0.146492
vt 0.032342 0.123025
vt 0.148823 0.114264
vt 0.164975 0.081906
vt 0.115911 0.123321
vn -0.234382 0.864567 0.444509
vn -0.244309 0.799847 0.548231
vn -0.095023 0.788842 0.607206
vn -0.131088 0.874244 0.467453
vn 0.036730 0.769510 0.637577
vn 0.222523 0.973912 0.044488
vn 0.062532 0.747231 0.661616
vn 0.891663 0.341465 0.297218
vn -0.861422 0.418926 0.287146
vn -0.210094 0.948381 0.237556
vn -0.210094 0.948381 0.237556
vn -0.210094 0.948381 0.237556
vn 0.215928 0.945108 -0.245248
vn 0.215928 0.945108 -0.245248
vn 0.215928 0.945108 -0.245248
vn -0.236295 0.938737 -0.250875
vn -0.236295 0.938737 -0.250875
vn -0.304220 0.928138 0.214501
vn -0.304220 0.928138 0.214501
vn -0.304220 0.928138 0.214501
s 1
g group22 F_Tomato_Egg_cooked polySurface284
usemtl aiStandardSurface2SG
f 64/102/86 63/103/87 62/104/88 66/105/89
f 66/105/89 72/106/90 70/107/91
f 62/104/88 65/108/92 72/106/90 66/105/89
f 72/109/90 65/110/92 71/111/93
f 64/112/86 67/113/94 63/114/87
s off
f 68/115/95 70/107/96 69/116/97
f 66/105/98 70/107/99 68/115/100
s 1
f 68/115/101 61/117/102 64/102/86 66/105/89
s off
f 69/116/103 70/107/104 72/106/105
g default
v -416.687530 78.358994 787.769591
v -417.008209 77.234277 792.772276
v -417.610321 77.349825 793.109434
v -409.934753 80.598535 789.947752
v -403.238830 76.674669 781.069578
v -404.378021 76.961373 783.919310
v -402.994476 77.087808 782.535765
v -411.606445 78.993607 794.631956
v -415.383148 78.496500 792.627745
v -409.934753 78.322091 782.085264
v -416.478668 78.138384 792.964842
v -409.934753 79.051140 796.720518
v -402.576843 76.833468 780.837889
v -402.548828 76.375916 780.628416
v -402.873138 78.493242 788.409910
v -408.225677 78.769603 795.560057
v -403.510864 78.137751 793.052489
v -409.287353 78.868715 796.612608
v -409.200073 78.811631 796.740233
vt 0.163495 0.246407
vt 0.178957 0.218273
vt 0.165399 0.248509
vt 0.233626 0.138606
vt 0.233076 0.135382
vt 0.236177 0.135386
vt 0.219247 0.208551
vt 0.206221 0.179603
vt 0.245693 0.205840
vt 0.240713 0.200646
vt 0.244972 0.179691
vt 0.247815 0.213422
vt 0.247964 0.214023
vt 0.068746 0.029496
vt 0.069731 0.052541
vt 0.062452 0.030350
vt 0.170455 0.194921
vt 0.175446 0.192369
vt 0.189376 0.169824
vt 0.192966 0.156153
vt 0.206394 0.152583
vt 0.245984 0.157792
vt 0.197301 0.153945
vt 0.197648 0.153393
vn 0.304865 0.924837 0.227453
vn 0.304865 0.924837 0.227453
vn 0.304865 0.924837 0.227453
vn -0.384310 0.364728 -0.848103
vn -0.384310 0.364728 -0.848103
vn -0.384310 0.364728 -0.848103
vn -0.223091 0.936340 -0.271104
vn -0.274414 0.961327 -0.023396
vn -0.278118 0.960546 -0.001310
vn 0.154622 0.957837 0.242159
vn 0.154622 0.957837 0.242159
vn 0.154622 0.957837 0.242159
vn 0.276713 0.954871 -0.107937
vn 0.258372 0.913862 -0.313209
vn 0.258372 0.913862 -0.313209
vn 0.279972 0.959082 -0.042151
vn -0.302804 0.928361 -0.215533
vn -0.302804 0.928361 -0.215533
vn -0.302804 0.928362 -0.215533
vn -0.302804 0.928362 -0.215533
vn -0.302804 0.928362 -0.215533
vn -0.866668 0.495744 0.055891
vn -0.866668 0.495744 0.055891
vn -0.866668 0.495744 0.055891
vn -0.298544 0.944014 0.140392
vn -0.298544 0.944014 0.140392
vn -0.298544 0.944014 0.140392
vn -0.298544 0.944014 0.140392
vn 0.281939 0.942599 0.178936
vn 0.281939 0.942599 0.178936
vn 0.281939 0.942599 0.178936
vn 0.281939 0.942599 0.178936
vn 0.281939 0.942599 0.178936
s off
g group22 F_Tomato_Egg_cooked polySurface278
usemtl aiStandardSurface2SG
f 74/118/106 73/119/107 75/120/108
f 77/121/109 85/122/110 86/123/111
s 1
f 82/124/112 73/119/113 76/125/114
s off
f 79/126/115 82/124/116 78/127/117
s 2
f 87/128/118 78/127/119 82/124/120 76/125/121
s off
f 78/127/122 87/128/123 85/129/124 77/130/125 79/126/126
f 83/131/127 73/132/128 74/133/129
s 1
f 76/125/114 73/119/113 83/134/130 81/135/131 80/136/132 84/137/133
s 2
f 88/138/134 89/139/135 87/128/118 76/125/121 84/137/136 90/140/137 91/141/138
g default
v -424.363128 76.613297 801.377257
v -421.012664 78.549128 795.280455
v -415.383148 79.899623 793.310118
v -421.730621 78.334406 805.224791
v -421.194793 78.447412 806.255247
v -421.012664 78.549128 806.539488
v -421.138153 78.303422 806.664976
v -422.983001 79.899623 800.909971
v -418.859161 76.878268 793.424986
v -415.383148 76.387332 810.217955
v -409.767334 77.322381 807.766173
v -409.029480 80.184350 800.909971
v -411.606445 78.993607 794.631956
v -415.383148 78.496500 792.627745
v -409.029480 79.045472 797.349425
v -409.287353 78.868715 796.612608
v -409.934753 79.051140 796.720518
v -416.478668 78.138384 792.964842
v -417.008209 77.234277 792.772276
v -417.610321 77.349825 793.109434
vt 0.146101 0.194372
vt 0.130356 0.176269
vt 0.181709 0.137281
vt 0.175651 0.185480
vt 0.115035 0.156278
vt 0.115911 0.123321
vt 0.306277 0.041784
vt 0.307067 0.043156
vt 0.317408 0.056002
vt 0.300454 0.071862
vt 0.304237 0.044601
vt 0.306362 0.044082
vt 0.184735 0.058261
vt 0.183000 0.058616
vt 0.168841 0.029469
vt 0.148823 0.114264
vt 0.334764 0.071300
vt 0.269208 0.132226
vt 0.271728 0.113738
vt 0.278743 0.131612
vt 0.189376 0.169824
vt 0.195410 0.150532
vt 0.197301 0.153945
vt 0.192966 0.156153
vt 0.288601 0.147782
vt 0.276461 0.159076
vt 0.280803 0.136795
vt 0.286766 0.138981
vt 0.285775 0.141967
vn -0.118816 0.980842 -0.154373
vn -0.081462 0.982855 0.165410
vn 0.006427 0.990256 0.139112
vn -0.097127 0.977932 -0.184976
vn -0.053520 0.932915 0.356098
vn 0.026518 0.940729 0.338120
vn -0.829028 0.404093 0.386551
vn -0.829028 0.404093 0.386551
vn -0.829028 0.404092 0.386550
vn -0.829028 0.404093 0.386550
vn -0.298117 0.550578 0.779737
vn 0.015240 0.922138 0.386562
vn -0.871001 0.311800 -0.379655
vn -0.871001 0.311800 -0.379655
vn -0.871001 0.311800 -0.379655
vn 0.386994 0.403275 -0.829220
vn 0.386994 0.403275 -0.829220
vn 0.386994 0.403275 -0.829220
vn 0.315748 0.898739 -0.304255
vn 0.315748 0.898739 -0.304255
vn 0.315748 0.898739 -0.304255
vn 0.315748 0.898739 -0.304255
vn -0.384208 0.408651 -0.827882
vn -0.384208 0.408651 -0.827882
vn -0.384208 0.408651 -0.827882
vn -0.384208 0.408651 -0.827882
vn -0.384208 0.408651 -0.827882
s 1
g group22 F_Tomato_Egg_cooked polySurface277
usemtl aiStandardSurface2SG
f 93/142/139 99/143/140 103/144/141 94/145/142
f 103/144/141 99/143/140 97/146/143 101/147/144
f 98/148/145 97/149/143 99/150/140 92/151/146 95/152/147 96/153/148
f 97/154/143 98/155/149 101/156/144
f 103/144/141 101/147/144 102/157/150
s off
f 93/158/151 92/151/152 99/150/153
f 94/159/154 104/160/155 105/161/156
s 1
f 104/162/157 94/145/142 103/144/141 106/163/158 107/164/159 108/165/160
f 100/166/161 93/167/139 94/159/142 105/161/162 109/168/163 110/169/164 111/170/165
