# This file uses centimeters as units for non-parametric coordinates.

mtllib y_chopping_block.mtl
g default
v 3.247730 6.538594 0.419745
v 3.217333 6.538594 0.368737
v 3.175810 6.538594 0.350067
v 3.175810 6.538594 0.628780
v 3.217333 6.538594 0.610110
v 3.247730 6.538594 0.559102
v 3.258856 6.538594 0.489424
v 3.250139 6.545336 0.417412
v 3.218724 6.545336 0.364695
v 3.175810 6.545336 0.345399
v 3.175810 6.545336 0.633448
v 3.218724 6.545336 0.614152
v 3.250139 6.545336 0.561436
v 3.261637 6.545336 0.489424
v 3.256720 6.550271 0.411036
v 3.222523 6.550271 0.353651
v 3.175810 6.550271 0.332647
v 3.175810 6.550271 0.646200
v 3.222523 6.550271 0.625196
v 3.256720 6.550271 0.567812
v 3.269236 6.550271 0.489424
v 3.265710 6.552078 0.402326
v 3.227714 6.552078 0.338566
v 3.175810 6.552078 0.315228
v 3.175810 6.552078 0.663620
v 3.227714 6.552078 0.640282
v 3.265710 6.552078 0.576522
v 3.279617 6.552078 0.489424
v 3.274699 6.550271 0.393616
v 3.232904 6.550271 0.323480
v 3.175810 6.550271 0.297808
v 3.175810 6.550271 0.681039
v 3.232904 6.550271 0.655368
v 3.274699 6.550271 0.585231
v 3.289998 6.550271 0.489424
v 3.281281 6.545336 0.387240
v 3.236704 6.545336 0.312436
v 3.175810 6.545336 0.285056
v 3.175810 6.545336 0.693791
v 3.236704 6.545336 0.666411
v 3.281281 6.545336 0.591607
v 3.297597 6.545336 0.489424
v 3.283689 6.538594 0.384906
v 3.238094 6.538594 0.308394
v 3.175810 6.538594 0.280389
v 3.175810 6.538594 0.698459
v 3.238094 6.538594 0.670453
v 3.283689 6.538594 0.593941
v 3.300378 6.538594 0.489424
v 3.281281 6.531852 0.387240
v 3.236704 6.531852 0.312436
v 3.175810 6.531852 0.285056
v 3.175810 6.531852 0.693791
v 3.236704 6.531852 0.666411
v 3.281281 6.531852 0.591607
v 3.297597 6.531852 0.489424
v 3.274699 6.526917 0.393616
v 3.232904 6.526917 0.323480
v 3.175810 6.526917 0.297808
v 3.175810 6.526917 0.681039
v 3.232904 6.526917 0.655368
v 3.274699 6.526917 0.585231
v 3.289998 6.526917 0.489424
v 3.265710 6.525110 0.402326
v 3.227714 6.525110 0.338566
v 3.175810 6.525110 0.315228
v 3.175810 6.525110 0.663620
v 3.227714 6.525110 0.640282
v 3.265710 6.525110 0.576522
v 3.279617 6.525110 0.489424
v 3.256720 6.526917 0.411036
v 3.222523 6.526917 0.353651
v 3.175810 6.526917 0.332647
v 3.175810 6.526917 0.646200
v 3.222523 6.526917 0.625196
v 3.256720 6.526917 0.567812
v 3.269236 6.526917 0.489424
v 3.250139 6.531852 0.417412
v 3.218724 6.531852 0.364695
v 3.175810 6.531852 0.345399
v 3.175810 6.531852 0.633448
v 3.218724 6.531852 0.614152
v 3.250139 6.531852 0.561436
v 3.261637 6.531852 0.489424
vt 0.000000 1.000000
vt 0.083333 1.000000
vt 0.166667 1.000000
vt 0.666667 1.000000
vt 0.750000 1.000000
vt 0.833333 1.000000
vt 0.916667 1.000000
vt 1.000000 1.000000
vt 0.000000 0.916667
vt 0.083333 0.916667
vt 0.166667 0.916667
vt 0.666667 0.916667
vt 0.750000 0.916667
vt 0.833333 0.916667
vt 0.916667 0.916667
vt 1.000000 0.916667
vt 0.000000 0.833333
vt 0.083333 0.833333
vt 0.166667 0.833333
vt 0.666667 0.833333
vt 0.750000 0.833333
vt 0.833333 0.833333
vt 0.916667 0.833333
vt 1.000000 0.833333
vt 0.000000 0.750000
vt 0.083333 0.750000
vt 0.166667 0.750000
vt 0.666667 0.750000
vt 0.750000 0.750000
vt 0.833333 0.750000
vt 0.916667 0.750000
vt 1.000000 0.750000
vt 0.000000 0.666667
vt 0.083333 0.666667
vt 0.166667 0.666667
vt 0.666667 0.666667
vt 0.750000 0.666667
vt 0.833333 0.666667
vt 0.916667 0.666667
vt 1.000000 0.666667
vt 0.000000 0.583333
vt 0.083333 0.583333
vt 0.166667 0.583333
vt 0.666667 0.583333
vt 0.750000 0.583333
vt 0.833333 0.583333
vt 0.916667 0.583333
vt 1.000000 0.583333
vt 0.000000 0.500000
vt 0.083333 0.500000
vt 0.166667 0.500000
vt 0.666667 0.500000
vt 0.750000 0.500000
vt 0.833333 0.500000
vt 0.916667 0.500000
vt 1.000000 0.500000
vt 0.000000 0.416667
vt 0.083333 0.416667
vt 0.166667 0.416667
vt 0.666667 0.416667
vt 0.750000 0.416667
vt 0.833333 0.416667
vt 0.916667 0.416667
vt 1.000000 0.416667
vt 0.000000 0.333333
vt 0.083333 0.333333
vt 0.166667 0.333333
vt 0.666667 0.333333
vt 0.750000 0.333333
vt 0.833333 0.333333
vt 0.916667 0.333333
vt 1.000000 0.333333
vt 0.000000 0.250000
vt 0.083333 0.250000
vt 0.166667 0.250000
vt 0.666667 0.250000
vt 0.750000 0.250000
vt 0.833333 0.250000
vt 0.916667 0.250000
vt 1.000000 0.250000
vt 0.000000 0.166667
vt 0.083333 0.166667
vt 0.166667 0.166667
vt 0.666667 0.166667
vt 0.750000 0.166667
vt 0.833333 0.166667
vt 0.916667 0.166667
vt 1.000000 0.166667
vt 0.000000 0.083333
vt 0.083333 0.083333
vt 0.166667 0.083333
vt 0.666667 0.083333
vt 0.750000 0.083333
vt 0.833333 0.083333
vt 0.916667 0.083333
vt 1.000000 0.083333
vt 0.000000 0.000000
vt 0.083333 0.000000
vt 0.166667 0.000000
vt 0.666667 0.000000
vt 0.750000 0.000000
vt 0.833333 0.000000
vt 0.916667 0.000000
vt 1.000000 0.000000
vn -0.773187 0.435756 0.460758
vn -0.773187 0.435756 0.460758
vn -0.773187 0.435756 0.460758
vn -0.773187 0.435756 0.460758
vn -0.346750 0.533905 0.771174
vn -0.346750 0.533905 0.771174
vn -0.346750 0.533905 0.771174
vn -0.346750 0.533905 0.771174
vn -0.346750 0.533905 -0.771174
vn -0.346750 0.533905 -0.771174
vn -0.346750 0.533905 -0.771174
vn -0.346750 0.533905 -0.771174
vn -0.773187 0.435756 -0.460758
vn -0.773187 0.435756 -0.460758
vn -0.773187 0.435756 -0.460758
vn -0.773187 0.435756 -0.460758
vn -0.914506 0.377300 -0.146025
vn -0.914506 0.377300 -0.146025
vn -0.914506 0.377300 -0.146025
vn -0.914506 0.377300 -0.146025
vn -0.914506 0.377300 0.146025
vn -0.914506 0.377300 0.146025
vn -0.914506 0.377300 0.146025
vn -0.914506 0.377300 0.146025
vn -0.415978 0.874936 0.247890
vn -0.415978 0.874936 0.247890
vn -0.415978 0.874936 0.247890
vn -0.415978 0.874936 0.247890
vn -0.160196 0.920546 0.356276
vn -0.160196 0.920546 0.356276
vn -0.160196 0.920546 0.356276
vn -0.160196 0.920546 0.356276
vn -0.160196 0.920546 -0.356276
vn -0.160196 0.920546 -0.356276
vn -0.160196 0.920546 -0.356276
vn -0.160196 0.920546 -0.356276
vn -0.415978 0.874936 -0.247890
vn -0.415978 0.874936 -0.247890
vn -0.415978 0.874936 -0.247890
vn -0.415978 0.874936 -0.247890
vn -0.542622 0.835496 -0.086644
vn -0.542622 0.835496 -0.086644
vn -0.542622 0.835496 -0.086644
vn -0.542622 0.835496 -0.086644
vn -0.542622 0.835497 0.086644
vn -0.542622 0.835497 0.086644
vn -0.542622 0.835496 0.086644
vn -0.542622 0.835496 0.086644
vn -0.126015 0.989182 0.075095
vn -0.126015 0.989182 0.075095
vn -0.126015 0.989182 0.075095
vn -0.126015 0.989182 0.075095
vn -0.046331 0.993598 0.103040
vn -0.046331 0.993598 0.103040
vn -0.046331 0.993598 0.103040
vn -0.046331 0.993598 0.103040
vn -0.046331 0.993598 -0.103040
vn -0.046331 0.993598 -0.103040
vn -0.046331 0.993598 -0.103040
vn -0.046331 0.993598 -0.103040
vn -0.126015 0.989182 -0.075095
vn -0.126015 0.989182 -0.075095
vn -0.126015 0.989182 -0.075095
vn -0.126015 0.989182 -0.075095
vn -0.171382 0.984825 -0.027366
vn -0.171382 0.984825 -0.027366
vn -0.171382 0.984825 -0.027366
vn -0.171382 0.984825 -0.027366
vn -0.171382 0.984825 0.027366
vn -0.171382 0.984825 0.027366
vn -0.171382 0.984825 0.027366
vn -0.171382 0.984825 0.027366
vn 0.126015 0.989182 -0.075095
vn 0.126015 0.989182 -0.075095
vn 0.126015 0.989182 -0.075095
vn 0.126015 0.989182 -0.075095
vn 0.046331 0.993598 -0.103039
vn 0.046331 0.993598 -0.103039
vn 0.046331 0.993598 -0.103039
vn 0.046331 0.993598 -0.103039
vn 0.046331 0.993598 0.103040
vn 0.046331 0.993598 0.103040
vn 0.046331 0.993598 0.103040
vn 0.046331 0.993598 0.103040
vn 0.126015 0.989182 0.075095
vn 0.126015 0.989182 0.075095
vn 0.126015 0.989182 0.075095
vn 0.126015 0.989182 0.075095
vn 0.171382 0.984825 0.027366
vn 0.171382 0.984825 0.027366
vn 0.171382 0.984825 0.027366
vn 0.171382 0.984825 0.027366
vn 0.171382 0.984825 -0.027366
vn 0.171382 0.984825 -0.027366
vn 0.171382 0.984825 -0.027366
vn 0.171382 0.984825 -0.027366
vn 0.415978 0.874936 -0.247890
vn 0.415978 0.874936 -0.247890
vn 0.415978 0.874936 -0.247890
vn 0.415978 0.874936 -0.247890
vn 0.160196 0.920546 -0.356276
vn 0.160196 0.920546 -0.356276
vn 0.160196 0.920546 -0.356276
vn 0.160196 0.920546 -0.356276
vn 0.160196 0.920546 0.356275
vn 0.160196 0.920546 0.356275
vn 0.160196 0.920546 0.356275
vn 0.160196 0.920546 0.356275
vn 0.415978 0.874936 0.247889
vn 0.415978 0.874936 0.247889
vn 0.415978 0.874936 0.247889
vn 0.415977 0.874936 0.247889
vn 0.542622 0.835496 0.086644
vn 0.542622 0.835496 0.086644
vn 0.542622 0.835496 0.086644
vn 0.542622 0.835496 0.086644
vn 0.542622 0.835496 -0.086644
vn 0.542622 0.835496 -0.086644
vn 0.542622 0.835496 -0.086644
vn 0.542622 0.835496 -0.086644
vn 0.773187 0.435757 -0.460758
vn 0.773187 0.435757 -0.460758
vn 0.773187 0.435757 -0.460758
vn 0.773187 0.435757 -0.460758
vn 0.346750 0.533906 -0.771173
vn 0.346750 0.533906 -0.771173
vn 0.346750 0.533906 -0.771173
vn 0.346750 0.533906 -0.771173
vn 0.346751 0.533904 0.771175
vn 0.346751 0.533904 0.771175
vn 0.346751 0.533904 0.771175
vn 0.346751 0.533904 0.771175
vn 0.773188 0.435754 0.460758
vn 0.773188 0.435754 0.460758
vn 0.773188 0.435754 0.460758
vn 0.773188 0.435754 0.460758
vn 0.914506 0.377301 0.146025
vn 0.914506 0.377301 0.146025
vn 0.914506 0.377301 0.146025
vn 0.914506 0.377301 0.146025
vn 0.914506 0.377301 -0.146025
vn 0.914506 0.377301 -0.146025
vn 0.914506 0.377301 -0.146025
vn 0.914506 0.377301 -0.146025
vn 0.773187 -0.435757 -0.460758
vn 0.773187 -0.435757 -0.460758
vn 0.773187 -0.435757 -0.460758
vn 0.773187 -0.435757 -0.460758
vn 0.346750 -0.533907 -0.771173
vn 0.346750 -0.533907 -0.771173
vn 0.346750 -0.533907 -0.771173
vn 0.346750 -0.533907 -0.771173
vn 0.346751 -0.533905 0.771174
vn 0.346751 -0.533905 0.771174
vn 0.346751 -0.533905 0.771174
vn 0.346751 -0.533905 0.771174
vn 0.773188 -0.435756 0.460758
vn 0.773188 -0.435756 0.460758
vn 0.773188 -0.435756 0.460758
vn 0.773188 -0.435756 0.460758
vn 0.914506 -0.377301 0.146025
vn 0.914506 -0.377301 0.146025
vn 0.914506 -0.377301 0.146025
vn 0.914506 -0.377301 0.146025
vn 0.914506 -0.377301 -0.146025
vn 0.914506 -0.377301 -0.146025
vn 0.914506 -0.377301 -0.146025
vn 0.914506 -0.377301 -0.146025
vn 0.415978 -0.874936 -0.247890
vn 0.415978 -0.874936 -0.247890
vn 0.415978 -0.874936 -0.247890
vn 0.415978 -0.874936 -0.247890
vn 0.160196 -0.920546 -0.356276
vn 0.160196 -0.920546 -0.356276
vn 0.160196 -0.920546 -0.356276
vn 0.160196 -0.920546 -0.356276
vn 0.160196 -0.920546 0.356276
vn 0.160196 -0.920546 0.356276
vn 0.160196 -0.920546 0.356276
vn 0.160196 -0.920546 0.356276
vn 0.415978 -0.874936 0.247890
vn 0.415978 -0.874936 0.247890
vn 0.415978 -0.874936 0.247890
vn 0.415978 -0.874936 0.247890
vn 0.542623 -0.835496 0.086644
vn 0.542623 -0.835496 0.086644
vn 0.542623 -0.835496 0.086644
vn 0.542623 -0.835496 0.086644
vn 0.542623 -0.835496 -0.086644
vn 0.542623 -0.835496 -0.086644
vn 0.542623 -0.835496 -0.086644
vn 0.542623 -0.835496 -0.086644
vn 0.126015 -0.989182 -0.075095
vn 0.126015 -0.989182 -0.075095
vn 0.126015 -0.989182 -0.075095
vn 0.126015 -0.989182 -0.075095
vn 0.046331 -0.993598 -0.103040
vn 0.046331 -0.993598 -0.103040
vn 0.046331 -0.993598 -0.103040
vn 0.046331 -0.993598 -0.103040
vn 0.046331 -0.993598 0.103040
vn 0.046331 -0.993598 0.103040
vn 0.046331 -0.993598 0.103039
vn 0.046331 -0.993598 0.103040
vn 0.126015 -0.989182 0.075095
vn 0.126015 -0.989182 0.075095
vn 0.126015 -0.989182 0.075095
vn 0.126015 -0.989182 0.075095
vn 0.171382 -0.984825 0.027366
vn 0.171382 -0.984825 0.027366
vn 0.171382 -0.984825 0.027366
vn 0.171382 -0.984825 0.027366
vn 0.171382 -0.984825 -0.027366
vn 0.171382 -0.984825 -0.027366
vn 0.171382 -0.984825 -0.027366
vn 0.171382 -0.984825 -0.027366
vn -0.126015 -0.989182 0.075095
vn -0.126015 -0.989182 0.075095
vn -0.126015 -0.989182 0.075095
vn -0.126015 -0.989182 0.075095
vn -0.046331 -0.993598 0.103040
vn -0.046331 -0.993598 0.103040
vn -0.046331 -0.993598 0.103040
vn -0.046331 -0.993598 0.103040
vn -0.046331 -0.993598 -0.103039
vn -0.046331 -0.993598 -0.103039
vn -0.046331 -0.993598 -0.103039
vn -0.046331 -0.993598 -0.103039
vn -0.126015 -0.989182 -0.075095
vn -0.126015 -0.989182 -0.075095
vn -0.126015 -0.989182 -0.075095
vn -0.126015 -0.989182 -0.075095
vn -0.171382 -0.984825 -0.027366
vn -0.171382 -0.984825 -0.027366
vn -0.171382 -0.984825 -0.027366
vn -0.171382 -0.984825 -0.027366
vn -0.171382 -0.984825 0.027366
vn -0.171382 -0.984825 0.027366
vn -0.171382 -0.984825 0.027366
vn -0.171382 -0.984825 0.027366
vn -0.415978 -0.874936 0.247890
vn -0.415978 -0.874936 0.247890
vn -0.415978 -0.874936 0.247890
vn -0.415978 -0.874936 0.247890
vn -0.160196 -0.920546 0.356276
vn -0.160196 -0.920546 0.356276
vn -0.160196 -0.920546 0.356276
vn -0.160196 -0.920546 0.356276
vn -0.160196 -0.920546 -0.356276
vn -0.160196 -0.920546 -0.356276
vn -0.160196 -0.920546 -0.356276
vn -0.160196 -0.920546 -0.356276
vn -0.415978 -0.874936 -0.247890
vn -0.415978 -0.874936 -0.247890
vn -0.415978 -0.874936 -0.247890
vn -0.415978 -0.874936 -0.247890
vn -0.542622 -0.835496 -0.086644
vn -0.542622 -0.835496 -0.086644
vn -0.542622 -0.835496 -0.086644
vn -0.542622 -0.835496 -0.086644
vn -0.542622 -0.835496 0.086644
vn -0.542622 -0.835496 0.086644
vn -0.542622 -0.835497 0.086644
vn -0.542622 -0.835497 0.086644
vn -0.773187 -0.435756 0.460758
vn -0.773187 -0.435756 0.460758
vn -0.773187 -0.435756 0.460758
vn -0.773187 -0.435756 0.460758
vn -0.346750 -0.533904 0.771175
vn -0.346750 -0.533904 0.771175
vn -0.346750 -0.533904 0.771175
vn -0.346750 -0.533904 0.771175
vn -0.346750 -0.533906 -0.771173
vn -0.346750 -0.533906 -0.771174
vn -0.346750 -0.533906 -0.771173
vn -0.346750 -0.533906 -0.771173
vn -0.773187 -0.435756 -0.460758
vn -0.773187 -0.435756 -0.460758
vn -0.773187 -0.435756 -0.460758
vn -0.773187 -0.435756 -0.460758
vn -0.914506 -0.377300 -0.146025
vn -0.914506 -0.377300 -0.146025
vn -0.914506 -0.377300 -0.146025
vn -0.914506 -0.377300 -0.146025
vn -0.914506 -0.377300 0.146025
vn -0.914506 -0.377300 0.146025
vn -0.914506 -0.377300 0.146025
vn -0.914506 -0.377300 0.146025
s off
g initialShadingGroup pTorus4 y_chopping_block group153
f 2/2/1 1/1/2 8/9/3 9/10/4
f 3/3/5 2/2/6 9/10/7 10/11/8
f 5/5/9 4/4/10 11/12/11 12/13/12
f 6/6/13 5/5/14 12/13/15 13/14/16
f 7/7/17 6/6/18 13/14/19 14/15/20
f 1/8/21 7/7/22 14/15/23 8/16/24
f 9/10/25 8/9/26 15/17/27 16/18/28
f 10/11/29 9/10/30 16/18/31 17/19/32
f 12/13/33 11/12/34 18/20/35 19/21/36
f 13/14/37 12/13/38 19/21/39 20/22/40
f 14/15/41 13/14/42 20/22/43 21/23/44
f 8/16/45 14/15/46 21/23/47 15/24/48
f 16/18/49 15/17/50 22/25/51 23/26/52
f 17/19/53 16/18/54 23/26/55 24/27/56
f 19/21/57 18/20/58 25/28/59 26/29/60
f 20/22/61 19/21/62 26/29/63 27/30/64
f 21/23/65 20/22/66 27/30/67 28/31/68
f 15/24/69 21/23/70 28/31/71 22/32/72
f 23/26/73 22/25/74 29/33/75 30/34/76
f 24/27/77 23/26/78 30/34/79 31/35/80
f 26/29/81 25/28/82 32/36/83 33/37/84
f 27/30/85 26/29/86 33/37/87 34/38/88
f 28/31/89 27/30/90 34/38/91 35/39/92
f 22/32/93 28/31/94 35/39/95 29/40/96
f 30/34/97 29/33/98 36/41/99 37/42/100
f 31/35/101 30/34/102 37/42/103 38/43/104
f 33/37/105 32/36/106 39/44/107 40/45/108
f 34/38/109 33/37/110 40/45/111 41/46/112
f 35/39/113 34/38/114 41/46/115 42/47/116
f 29/40/117 35/39/118 42/47/119 36/48/120
f 37/42/121 36/41/122 43/49/123 44/50/124
f 38/43/125 37/42/126 44/50/127 45/51/128
f 40/45/129 39/44/130 46/52/131 47/53/132
f 41/46/133 40/45/134 47/53/135 48/54/136
f 42/47/137 41/46/138 48/54/139 49/55/140
f 36/48/141 42/47/142 49/55/143 43/56/144
f 44/50/145 43/49/146 50/57/147 51/58/148
f 45/51/149 44/50/150 51/58/151 52/59/152
f 47/53/153 46/52/154 53/60/155 54/61/156
f 48/54/157 47/53/158 54/61/159 55/62/160
f 49/55/161 48/54/162 55/62/163 56/63/164
f 43/56/165 49/55/166 56/63/167 50/64/168
f 51/58/169 50/57/170 57/65/171 58/66/172
f 52/59/173 51/58/174 58/66/175 59/67/176
f 54/61/177 53/60/178 60/68/179 61/69/180
f 55/62/181 54/61/182 61/69/183 62/70/184
f 56/63/185 55/62/186 62/70/187 63/71/188
f 50/64/189 56/63/190 63/71/191 57/72/192
f 58/66/193 57/65/194 64/73/195 65/74/196
f 59/67/197 58/66/198 65/74/199 66/75/200
f 61/69/201 60/68/202 67/76/203 68/77/204
f 62/70/205 61/69/206 68/77/207 69/78/208
f 63/71/209 62/70/210 69/78/211 70/79/212
f 57/72/213 63/71/214 70/79/215 64/80/216
f 65/74/217 64/73/218 71/81/219 72/82/220
f 66/75/221 65/74/222 72/82/223 73/83/224
f 68/77/225 67/76/226 74/84/227 75/85/228
f 69/78/229 68/77/230 75/85/231 76/86/232
f 70/79/233 69/78/234 76/86/235 77/87/236
f 64/80/237 70/79/238 77/87/239 71/88/240
f 72/82/241 71/81/242 78/89/243 79/90/244
f 73/83/245 72/82/246 79/90/247 80/91/248
f 75/85/249 74/84/250 81/92/251 82/93/252
f 76/86/253 75/85/254 82/93/255 83/94/256
f 77/87/257 76/86/258 83/94/259 84/95/260
f 71/88/261 77/87/262 84/95/263 78/96/264
f 79/90/265 78/89/266 1/97/267 2/98/268
f 80/91/269 79/90/270 2/98/271 3/99/272
f 82/93/273 81/92/274 4/100/275 5/101/276
f 83/94/277 82/93/278 5/101/279 6/102/280
f 84/95/281 83/94/282 6/102/283 7/103/284
f 78/96/285 84/95/286 7/103/287 1/104/288
g default
v 2.374428 6.507222 0.865026
v 2.374428 6.527255 0.901707
v 2.353442 6.527255 0.865026
v 3.203977 6.527255 0.865026
v 3.183885 6.527255 0.901707
v 3.183885 6.507222 0.865026
v 2.353442 6.544433 0.865026
v 2.374428 6.544433 0.901707
v 2.374428 6.564467 0.865026
v 3.183885 6.564467 0.865026
v 3.183885 6.544433 0.901707
v 3.203977 6.544433 0.865026
v 2.353442 6.544433 0.154113
v 2.374428 6.564467 0.154113
v 2.374428 6.544433 0.117432
v 3.183885 6.544433 0.117432
v 3.183885 6.564467 0.154113
v 3.203977 6.544433 0.154113
v 2.353442 6.527255 0.154113
v 2.374428 6.527255 0.117432
v 2.374428 6.507222 0.154113
v 3.183885 6.507222 0.154113
v 3.183885 6.527255 0.117432
v 3.203977 6.527255 0.154113
vt 0.386692 0.988307
vt 0.375000 0.988308
vt 0.375000 0.761693
vt 0.386692 0.000000
vt 0.386692 0.087491
vt 0.625000 0.988307
vt 0.613307 0.988307
vt 0.625000 0.761693
vt 0.636693 0.087491
vt 0.375000 0.261692
vt 0.375000 0.488308
vt 0.386692 0.162508
vt 0.613307 0.162508
vt 0.625000 0.261692
vt 0.375000 0.587492
vt 0.375000 0.662509
vt 0.386692 0.488308
vt 0.613307 0.488308
vt 0.625000 0.587492
vt 0.625000 0.662509
vt 0.386692 0.662509
vt 0.613307 0.662509
vt 0.613307 0.761693
vt 0.613307 0.087491
vt 0.386692 0.261692
vt 0.613307 0.261692
vt 0.386692 0.587492
vt 0.613307 0.587492
vt 0.386692 0.761693
vt 0.863308 0.087491
vt 0.863308 0.162508
vt 0.136692 0.087491
vt 0.363308 0.087491
vt 0.363308 0.162508
vt 0.136692 0.162508
vt 0.613307 0.000000
vt 0.636693 0.162508
vt 0.625000 0.488308
vn -0.690506 -0.723326 0.000000
vn -0.690506 -0.723326 0.000000
vn -0.690506 -0.723326 0.000000
vn -0.690506 -0.723326 0.000000
vn 0.000000 -0.877633 0.479334
vn 0.000000 -0.877633 0.479334
vn 0.000000 -0.877633 0.479334
vn 0.000000 -0.877633 0.479334
vn -0.867982 0.000000 0.496595
vn -0.867982 0.000000 0.496595
vn -0.867982 0.000000 0.496595
vn -0.867982 0.000000 0.496595
vn 0.706086 -0.708126 0.000000
vn 0.706086 -0.708126 0.000000
vn 0.706086 -0.708126 0.000000
vn 0.706086 -0.708126 0.000000
vn 0.877050 0.000000 0.480400
vn 0.877050 0.000000 0.480400
vn 0.877050 0.000000 0.480400
vn 0.877050 0.000000 0.480400
vn -0.690510 0.723323 0.000000
vn -0.690510 0.723323 0.000000
vn -0.690510 0.723323 0.000000
vn -0.690510 0.723323 0.000000
vn 0.000000 0.877630 0.479338
vn 0.000000 0.877630 0.479338
vn 0.000000 0.877630 0.479338
vn 0.000000 0.877630 0.479338
vn 0.706090 0.708122 0.000000
vn 0.706090 0.708122 0.000000
vn 0.706090 0.708122 0.000000
vn 0.706090 0.708122 0.000000
vn -0.867982 0.000000 -0.496595
vn -0.867982 0.000000 -0.496595
vn -0.867982 0.000000 -0.496595
vn -0.867982 0.000000 -0.496595
vn 0.000000 0.877630 -0.479338
vn 0.000000 0.877630 -0.479338
vn 0.000000 0.877630 -0.479338
vn 0.000000 0.877630 -0.479338
vn 0.877050 0.000000 -0.480400
vn 0.877050 0.000000 -0.480400
vn 0.877050 0.000000 -0.480400
vn 0.877050 0.000000 -0.480400
vn 0.000000 -0.877633 -0.479334
vn 0.000000 -0.877633 -0.479334
vn 0.000000 -0.877633 -0.479334
vn 0.000000 -0.877633 -0.479334
vn 0.000000 0.000000 1.000000
vn 0.000000 0.000000 1.000000
vn 0.000000 0.000000 1.000000
vn 0.000000 0.000000 1.000000
vn 0.000000 1.000000 0.000000
vn 0.000000 1.000000 0.000000
vn 0.000000 1.000000 0.000000
vn 0.000000 1.000000 0.000000
vn 0.000000 0.000000 -1.000000
vn 0.000000 0.000000 -1.000000
vn 0.000000 0.000000 -1.000000
vn 0.000000 0.000000 -1.000000
vn 0.000000 -1.000000 0.000000
vn 0.000000 -1.000000 0.000000
vn 0.000000 -1.000000 0.000000
vn 0.000000 -1.000000 0.000000
vn 1.000000 0.000000 0.000000
vn 1.000000 0.000000 0.000000
vn 1.000000 0.000000 0.000000
vn 1.000000 0.000000 0.000000
vn -1.000000 0.000000 0.000000
vn -1.000000 0.000000 0.000000
vn -1.000000 0.000000 0.000000
vn -1.000000 0.000000 0.000000
vn -0.642209 -0.672732 0.367424
vn -0.642209 -0.672732 0.367424
vn -0.642209 -0.672732 0.367424
vn 0.658549 -0.660452 0.360717
vn 0.658549 -0.660452 0.360717
vn 0.658549 -0.660452 0.360717
vn -0.642212 0.672728 0.367426
vn -0.642212 0.672728 0.367426
vn -0.642212 0.672728 0.367426
vn 0.658552 0.660448 0.360719
vn 0.658552 0.660448 0.360719
vn 0.658552 0.660448 0.360719
vn -0.642212 0.672728 -0.367426
vn -0.642212 0.672728 -0.367426
vn -0.642212 0.672728 -0.367426
vn 0.658552 0.660448 -0.360719
vn 0.658552 0.660448 -0.360719
vn 0.658552 0.660448 -0.360719
vn -0.642209 -0.672732 -0.367424
vn -0.642209 -0.672732 -0.367424
vn -0.642209 -0.672732 -0.367424
vn 0.658549 -0.660452 -0.360717
vn 0.658549 -0.660452 -0.360717
vn 0.658549 -0.660452 -0.360717
s off
g initialShadingGroup y_chopping_block group153 pCube19
f 85/105/289 87/106/290 103/107/291 105/133/292
f 86/109/293 85/108/294 90/140/295 89/128/296
f 87/137/297 86/109/298 92/116/299 91/138/300
f 88/110/301 90/111/302 106/127/303 108/112/304
f 89/128/305 88/113/306 96/141/307 95/117/308
f 91/114/309 93/129/310 98/121/311 97/115/312
f 93/129/313 92/116/314 95/117/315 94/130/316
f 94/130/317 96/118/318 102/142/319 101/122/320
f 97/119/321 99/131/322 104/125/323 103/120/324
f 99/131/325 98/121/326 101/122/327 100/132/328
f 100/132/329 102/123/330 108/124/331 107/126/332
f 105/133/333 104/125/334 107/126/335 106/127/336
f 86/109/337 89/128/338 95/117/339 92/116/340
f 93/129/341 94/130/342 101/122/343 98/121/344
f 99/131/345 100/132/346 107/126/347 104/125/348
f 105/133/349 106/127/350 90/111/351 85/105/352
f 88/113/353 108/134/354 102/135/355 96/141/356
f 103/136/357 87/137/358 91/138/359 97/139/360
f 85/108/361 86/109/362 87/137/363
f 88/113/364 89/128/365 90/140/366
f 91/138/367 92/116/368 93/129/369
f 94/130/370 95/117/371 96/141/372
f 97/115/373 98/121/374 99/131/375
f 100/132/376 101/122/377 102/142/378
f 103/120/379 104/125/380 105/133/381
f 106/127/382 107/126/383 108/124/384
