# This file uses centimeters as units for non-parametric coordinates.

mtllib y_TrashCounter.mtl
g default
v -1.463084 5.344949 0.785488
v -1.449444 5.344949 0.799231
v -1.463084 6.277876 0.785488
v -1.449444 6.277876 0.799231
v -0.522391 5.344949 0.785488
v -0.536031 5.344949 0.799231
v -0.536031 6.277876 0.799231
v -0.522391 6.277876 0.785488
v -1.447443 6.442570 0.784687
v -1.433803 6.442570 0.798430
v -1.449444 6.437320 0.814190
v -1.463084 6.437320 0.800447
v -0.538032 6.442570 0.784687
v -0.551672 6.442570 0.798430
v -0.522391 6.437320 0.800447
v -0.536031 6.437320 0.814190
v -1.433803 6.442570 -0.132858
v -1.447443 6.442570 -0.119114
v -1.463084 6.437320 -0.134875
v -1.449444 6.437320 -0.148618
v -0.551672 6.442570 -0.132858
v -0.538032 6.442570 -0.119114
v -0.536031 6.437320 -0.148618
v -0.522391 6.437320 -0.134875
v -1.449444 5.344949 -0.148618
v -1.463084 5.344949 -0.134875
v -1.449444 6.277876 -0.148618
v -1.463084 6.277876 -0.134875
v -0.522391 5.344949 -0.134875
v -0.536031 5.344949 -0.148618
v -0.522391 6.277876 -0.134875
v -0.536031 6.277876 -0.148618
v -1.458400 6.284847 0.780768
v -1.444760 6.284847 0.794511
v -1.458400 6.284847 -0.130155
v -1.444760 6.284847 -0.143898
v -1.458400 6.318155 0.780768
v -1.444760 6.318155 0.794511
v -1.444760 6.318155 -0.143898
v -1.458400 6.318155 -0.130155
v -0.540715 6.284847 -0.143898
v -0.527075 6.284847 -0.130155
v -0.527075 6.318155 -0.130155
v -0.540715 6.318155 -0.143898
v -0.527075 6.284847 0.780768
v -0.540715 6.284847 0.794511
v -0.540715 6.318155 0.794511
v -0.527075 6.318155 0.780768
v -0.536031 6.335068 0.814190
v -0.522391 6.335068 0.800447
v -0.525670 6.320043 0.797143
v -0.539309 6.320043 0.810887
v -0.522391 6.335068 -0.134875
v -0.536031 6.335068 -0.148618
v -0.539309 6.320043 -0.145315
v -0.525670 6.320043 -0.131571
v -1.463084 6.335068 0.800447
v -1.449444 6.335068 0.814190
v -1.446166 6.320043 0.810887
v -1.459805 6.320043 0.797143
v -1.449444 6.335068 -0.148618
v -1.463084 6.335068 -0.134875
v -1.459805 6.320043 -0.131571
v -1.446166 6.320043 -0.145314
v -1.299698 6.442570 0.647606
v -1.309191 6.442570 0.638314
v -0.685777 6.442570 0.647606
v -0.676284 6.442570 0.638314
v -0.676284 6.442570 0.027258
v -1.309191 6.442570 0.027258
v -1.299698 5.874562 0.647606
v -1.309191 5.874562 0.638314
v -0.685777 5.874562 0.647606
v -0.676284 5.874562 0.638314
v -0.676284 5.874562 0.027258
v -0.685777 5.874562 0.017967
v -1.299698 5.874562 0.017967
v -1.309191 5.874562 0.027258
v -0.685777 6.431760 0.017967
v -0.681031 6.442570 0.022612
v -0.677556 6.442570 0.008893
v -1.299698 6.431760 0.017967
v -1.307919 6.442570 0.008893
v -1.304444 6.442570 0.022612
vt 0.625000 0.753625
vt 0.625000 0.996375
vt 0.621375 1.000000
vt 0.378625 1.000000
vt 0.375000 0.996375
vt 0.378625 -0.000000
vt 0.628625 0.000000
vt 0.379157 0.257782
vt 0.376371 0.247765
vt 0.617219 0.254157
vt 0.628625 0.244619
vt 0.128625 0.244619
vt 0.125000 0.244619
vt 0.125000 0.224604
vt 0.620843 0.492218
vt 0.625000 0.501600
vt 0.623652 0.502289
vt 0.625000 0.505381
vt 0.625000 0.525396
vt 0.375000 0.753625
vt 0.375000 0.543919
vt 0.125000 0.206081
vt 0.125000 0.206081
vt 0.621375 0.750000
vt 0.625000 0.543919
vt 0.625000 0.543919
vt 0.125000 0.223095
vt 0.125000 0.223095
vt 0.625000 0.526905
vt 0.625000 0.526905
vt 0.875000 0.223928
vt 0.875000 0.223095
vt 0.125000 0.223930
vt 0.621375 0.000000
vt 0.621375 0.206081
vt 0.378625 0.543919
vt 0.378625 0.750000
vt 0.871375 0.000000
vt 0.871375 0.206081
vt 0.128625 0.000000
vt 0.371375 0.000000
vt 0.371375 0.206081
vt 0.382804 0.254157
vt 0.378625 0.244619
vt 0.375000 0.248402
vt 0.375000 0.501600
vt 0.620843 0.257783
vt 0.625000 0.248400
vt 0.621375 0.505381
vt 0.128661 0.206081
vt 0.371339 0.223095
vt 0.378662 0.526905
vt 0.621339 0.543919
vt 0.628661 0.206081
vt 0.871339 0.223095
vt 0.378661 0.206081
vt 0.621339 0.223095
vt 0.128625 0.206081
vt 0.371339 0.206081
vt 0.621375 0.543919
vt 0.378662 0.543919
vt 0.628625 0.206081
vt 0.871339 0.206081
vt 0.378625 0.206081
vt 0.621339 0.206081
vt 0.628650 0.223095
vt 0.871375 0.224604
vt 0.621375 0.224604
vt 0.378649 0.223095
vt 0.371375 0.224604
vt 0.128653 0.223095
vt 0.378625 0.525396
vt 0.621349 0.526905
vt 0.378625 0.224604
vt 0.621375 0.244620
vt 0.128625 0.224604
vt 0.371375 0.244619
vt 0.378625 0.505381
vt 0.621375 0.525396
vt 0.628625 0.224604
vt 0.871375 0.244619
vt 0.371259 0.223095
vt 0.128661 0.223095
vt 0.378743 0.526905
vt 0.621339 0.526905
vt 0.871350 0.223095
vt 0.628661 0.223095
vt 0.621390 0.223095
vt 0.378661 0.223095
vt 0.379157 0.257782
vt 0.382804 0.254157
vt 0.617219 0.254157
vt 0.620843 0.257783
vt 0.620843 0.492218
vt 0.379157 0.257782
vt 0.382804 0.254157
vt 0.617219 0.254157
vt 0.620843 0.257783
vt 0.620843 0.492218
vt 0.379157 0.492218
vt 0.617218 0.495843
vt 0.382782 0.495843
vt 0.379157 0.492218
vt 0.379157 0.492218
vt 0.380969 0.494031
vt 0.617218 0.495843
vt 0.382782 0.495843
vt 0.617218 0.495843
vt 0.382782 0.495843
vt 0.619031 0.494031
vt 0.617218 0.495843
vt 0.382782 0.495843
vn 0.000000 1.000000 -0.000000
vn 0.000000 1.000000 -0.000000
vn 0.000000 1.000000 -0.000000
vn 0.000000 1.000000 -0.000000
vn 0.000000 1.000000 -0.000000
vn 0.000000 1.000000 -0.000000
vn 0.000000 1.000000 -0.000000
vn 0.000000 1.000000 -0.000000
vn 0.000000 -1.000000 0.000000
vn 0.000000 -1.000000 0.000000
vn 0.000000 -1.000000 0.000000
vn 0.000000 -1.000000 0.000000
vn 0.000000 -1.000000 0.000000
vn 0.000000 -1.000000 0.000000
vn 0.000000 -1.000000 0.000000
vn 0.000000 -1.000000 0.000000
vn -0.709779 0.000000 0.704425
vn -0.709779 0.000000 0.704425
vn -0.709779 0.000000 0.704425
vn -0.709779 0.000000 0.704425
vn -0.824870 0.565096 0.016025
vn -0.018837 0.569163 0.822009
vn -0.008875 0.564674 0.825266
vn -0.826866 0.562311 0.009932
vn 0.709780 0.000000 0.704424
vn 0.709780 0.000000 0.704424
vn 0.709780 0.000000 0.704424
vn 0.709780 0.000000 0.704424
vn 0.018836 0.569161 0.822010
vn 0.824886 0.565072 0.016026
vn 0.826882 0.562287 0.009932
vn 0.008875 0.564674 0.825267
vn -0.163324 0.973166 0.162089
vn -0.163324 0.973166 0.162089
vn -0.163324 0.973166 0.162089
vn -0.163324 0.973166 0.162089
vn -0.709780 0.000000 0.704423
vn -0.709780 0.000000 0.704423
vn -0.709780 0.000000 0.704423
vn -0.709780 0.000000 0.704423
vn 0.163324 0.973166 0.162089
vn 0.163324 0.973166 0.162089
vn 0.163324 0.973166 0.162089
vn 0.163324 0.973166 0.162089
vn 0.709781 0.000000 0.704422
vn 0.709781 0.000000 0.704422
vn 0.709781 0.000000 0.704422
vn 0.709781 0.000000 0.704422
vn -0.163323 0.973166 -0.162091
vn -0.163323 0.973166 -0.162091
vn -0.163323 0.973166 -0.162091
vn -0.163323 0.973166 -0.162091
vn -0.709779 0.000000 -0.704425
vn -0.709779 0.000000 -0.704425
vn -0.709779 0.000000 -0.704425
vn -0.709779 0.000000 -0.704425
vn 0.163324 0.973166 -0.162090
vn 0.163324 0.973166 -0.162090
vn 0.163324 0.973166 -0.162090
vn 0.163324 0.973166 -0.162090
vn 0.709780 0.000000 -0.704424
vn 0.709780 0.000000 -0.704424
vn 0.709780 0.000000 -0.704424
vn 0.709780 0.000000 -0.704424
vn -0.709779 0.000000 -0.704425
vn -0.709779 0.000000 -0.704425
vn -0.709779 0.000000 -0.704425
vn -0.709779 0.000000 -0.704425
vn -0.018837 0.569163 -0.822009
vn -0.824870 0.565096 -0.016025
vn -0.826866 0.562311 -0.009932
vn -0.008875 0.564674 -0.825266
vn 0.709780 0.000000 -0.704424
vn 0.709780 0.000000 -0.704424
vn 0.709780 0.000000 -0.704424
vn 0.709780 0.000000 -0.704424
vn 0.824886 0.565072 -0.016026
vn 0.018836 0.569161 -0.822010
vn 0.008875 0.564674 -0.825267
vn 0.826882 0.562287 -0.009932
vn -0.709774 0.000000 0.704430
vn -0.709774 0.000000 0.704430
vn -0.709774 0.000000 0.704430
vn -0.709774 0.000000 0.704430
vn -0.709774 0.000000 -0.704430
vn -0.709774 0.000000 -0.704430
vn -0.709774 0.000000 -0.704430
vn -0.709774 0.000000 -0.704430
vn -0.786368 -0.617747 0.003697
vn -0.002239 -0.993445 0.114289
vn -0.008859 -0.713020 0.701087
vn -0.970542 -0.240475 0.014831
vn -0.008441 -0.604263 -0.796740
vn -0.798564 -0.601836 -0.009443
vn -0.967707 -0.251730 -0.013253
vn -0.013242 -0.251586 -0.967744
vn 0.709783 0.000000 -0.704420
vn 0.709783 0.000000 -0.704420
vn 0.709783 0.000000 -0.704420
vn 0.709783 0.000000 -0.704420
vn 0.798543 -0.601863 -0.009444
vn 0.008442 -0.604263 -0.796740
vn 0.013242 -0.251590 -0.967743
vn 0.967711 -0.251714 -0.013252
vn 0.709783 0.000000 0.704420
vn 0.709783 0.000000 0.704420
vn 0.709783 0.000000 0.704420
vn 0.709783 0.000000 0.704420
vn 0.002239 -0.993445 0.114289
vn 0.786348 -0.617773 0.003697
vn 0.970548 -0.240452 0.014831
vn 0.008859 -0.713026 0.701081
vn 0.678003 -0.295887 0.672877
vn 0.678003 -0.295887 0.672877
vn 0.678002 -0.295880 -0.672880
vn 0.678002 -0.295880 -0.672880
vn -0.678003 -0.295893 0.672874
vn -0.678003 -0.295893 0.672874
vn -0.677997 -0.295887 -0.672882
vn -0.677997 -0.295887 -0.672882
vn 0.000000 0.000000 1.000000
vn 0.000000 0.000000 1.000000
vn 0.000000 0.000000 1.000000
vn 0.000000 0.000000 1.000000
vn 0.000000 0.000000 -1.000000
vn 0.000000 0.000000 -1.000000
vn 0.000000 0.000000 -1.000000
vn 0.000000 0.000000 -1.000000
vn 1.000000 0.000000 0.000000
vn 1.000000 0.000000 0.000000
vn 1.000000 0.000000 0.000000
vn 1.000000 0.000000 0.000000
vn -1.000000 0.000000 0.000000
vn -1.000000 0.000000 0.000000
vn -1.000000 0.000000 0.000000
vn -1.000000 0.000000 0.000000
vn 0.000000 0.948744 0.316047
vn 0.000000 0.948744 0.316047
vn 0.000000 0.948744 0.316047
vn 0.000000 0.948743 0.316047
vn -0.318205 0.948022 0.000000
vn -0.318205 0.948022 0.000000
vn -0.318205 0.948022 0.000000
vn -0.318205 0.948022 0.000000
vn 0.318208 0.948021 0.000000
vn 0.318208 0.948021 0.000000
vn 0.318208 0.948021 0.000000
vn 0.318208 0.948021 0.000000
vn 0.000000 0.948743 -0.316048
vn 0.000000 0.948743 -0.316048
vn 0.000000 0.948743 -0.316048
vn 0.000000 0.948743 -0.316048
vn -1.000000 0.000000 0.000000
vn -1.000000 0.000000 0.000000
vn -1.000000 0.000000 0.000000
vn -1.000000 0.000000 0.000000
vn 0.000000 0.000000 -1.000000
vn 0.000000 0.000000 -1.000000
vn 0.000000 0.000000 -1.000000
vn 0.000000 0.000000 -1.000000
vn 1.000000 0.000000 0.000000
vn 1.000000 0.000000 0.000000
vn 1.000000 0.000000 0.000000
vn 1.000000 0.000000 0.000000
vn 0.000000 0.000000 1.000000
vn 0.000000 0.000000 1.000000
vn 0.000000 0.000000 1.000000
vn 0.000000 0.000000 1.000000
vn 0.999686 -0.025045 0.000000
vn 0.999686 -0.025045 0.000000
vn 0.000000 -0.024870 0.999691
vn 0.000000 -0.024870 0.999691
vn -0.999686 -0.025048 0.000000
vn -0.999686 -0.025048 0.000000
vn -0.000000 -0.024870 -0.999691
vn -0.000000 -0.024870 -0.999691
vn 0.000000 0.000000 1.000000
vn 0.000000 0.000000 1.000000
vn -1.000000 0.000000 0.000000
vn -1.000000 0.000000 0.000000
vn 0.000000 0.000000 -1.000000
vn 0.000000 0.000000 -1.000000
vn 1.000000 0.000000 0.000000
vn 1.000000 0.000000 0.000000
vn 0.000000 1.000000 0.000000
vn 0.000000 1.000000 0.000000
vn 0.000000 1.000000 0.000000
vn 0.000000 1.000000 0.000000
vn 0.000000 1.000000 -0.000000
vn 0.000000 1.000000 -0.000000
vn 0.000000 1.000000 -0.000000
vn 0.000000 1.000000 -0.000000
vn 0.000000 1.000000 0.000000
vn 0.000000 1.000000 0.000000
vn 0.000000 1.000000 0.000000
vn 0.000000 1.000000 0.000000
vn 0.000000 1.000000 0.000000
vn 0.000000 1.000000 0.000000
vn 0.000000 1.000000 0.000000
vn 0.000000 1.000000 0.000000
vn 0.000000 1.000000 0.000000
vn 0.000000 1.000000 0.000000
vn 0.000000 1.000000 0.000000
vn 0.000000 1.000000 0.000000
vn 0.000000 1.000000 0.000000
vn 0.000000 1.000000 0.000000
vn 0.000000 1.000000 0.000000
vn 0.000000 1.000000 0.000000
vn 0.000000 1.000000 0.000000
vn 0.000000 1.000000 0.000000
vn 0.000000 1.000000 0.000000
vn 0.000000 1.000000 0.000000
vn 0.000000 1.000000 0.000000
vn 0.000000 1.000000 0.000000
vn 0.000000 1.000000 0.000000
vn 0.000000 1.000000 0.000000
vn 0.000000 1.000000 0.000000
vn 0.000000 1.000000 0.000000
vn 0.699523 0.000000 -0.714611
vn 0.699523 0.000000 -0.714611
vn 0.699523 0.000000 -0.714611
vn 0.699523 0.000000 -0.714611
vn 0.000000 0.000000 -1.000000
vn 0.000000 0.000000 -1.000000
vn 0.000000 0.000000 -1.000000
vn 0.000000 0.000000 -1.000000
vn -0.699520 0.000000 -0.714613
vn -0.699520 0.000000 -0.714613
vn -0.699520 0.000000 -0.714613
vn -0.699520 0.000000 -0.714613
vn -1.000000 0.000000 0.000000
vn -1.000000 0.000000 0.000000
vn -1.000000 0.000000 0.000000
vn -1.000000 0.000000 0.000000
vn -0.699507 0.000000 0.714626
vn -0.699507 0.000000 0.714626
vn -0.699507 0.000000 0.714626
vn -0.699507 0.000000 0.714626
vn -0.699507 0.000000 0.714626
vn 0.000000 0.000000 1.000000
vn 0.000000 0.000000 1.000000
vn 0.000000 0.000000 1.000000
vn 0.000000 0.000000 1.000000
vn 1.000000 0.000000 0.000000
vn 1.000000 0.000000 0.000000
vn 1.000000 0.000000 0.000000
vn 1.000000 0.000000 0.000000
vn 0.699510 0.000000 0.714623
vn 0.699510 0.000000 0.714623
vn 0.699510 0.000000 0.714623
vn 0.699510 0.000000 0.714623
vn 0.699510 0.000000 0.714623
vn 0.000000 0.642903 0.765947
vn 0.000000 0.642903 0.765947
vn 0.000000 0.642903 0.765947
vn 0.000000 0.642903 0.765947
vn -0.856128 0.469048 -0.216885
vn -0.856128 0.469048 -0.216885
vn -0.856128 0.469048 -0.216885
vn 0.856129 0.469045 -0.216889
vn 0.856129 0.469045 -0.216889
vn 0.856129 0.469045 -0.216889
s off
g pasted__pCube32 pasted__y_desk group6 group153
usemtl lambert19SG
f 72/95/1 71/96/2 73/97/3 74/98/4 75/99/5 76/106/6 77/102/7 78/100/8
f 26/20/9 25/37/10 30/24/11 29/1/12 5/2/13 6/3/14 2/4/15 1/5/16
f 1/41/17 2/6/18 4/64/19 3/42/20
s 1
f 3/42/21 4/64/22 34/56/23 33/59/24
s off
f 6/34/25 5/7/26 8/62/27 7/35/28
s 1
f 7/35/29 8/62/30 45/54/31 46/65/32
s off
f 10/43/33 9/8/34 12/9/35 11/44/36
f 11/44/37 12/77/38 57/70/39 58/74/40
f 13/47/41 14/10/42 16/75/43 15/11/44
f 15/11/45 16/75/46 49/68/47 50/80/48
f 18/103/49 17/107/50 20/78/51 19/46/52
f 19/12/53 20/13/54 61/14/55 62/76/56
f 21/101/57 22/15/58 24/16/59 23/17/60
f 23/49/61 24/18/62 53/19/63 54/79/64
f 25/37/65 26/20/66 28/21/67 27/36/68
s 1
f 27/22/69 28/58/70 35/50/71 36/23/72
s off
f 29/1/73 30/24/74 32/60/75 31/25/76
s 1
f 31/25/77 32/60/78 41/53/79 42/26/80
s off
f 33/59/81 34/56/82 38/89/83 37/51/84
f 36/23/85 35/50/86 40/83/87 39/27/88
s 3
f 37/51/89 38/89/90 59/69/91 60/82/92
f 39/27/93 40/83/94 63/71/95 64/28/96
s off
f 42/26/97 41/53/98 44/85/99 43/29/100
s 3
f 43/29/101 44/85/102 55/73/103 56/30/104
s off
f 46/65/105 45/54/106 48/87/107 47/57/108
s 3
f 47/57/109 48/87/110 51/66/111 52/88/112
f 50/80/113 49/68/114 52/88/112 51/66/111
f 54/31/115 53/67/116 56/86/104 55/32/103
f 58/74/117 57/70/118 60/82/92 59/69/91
f 62/76/119 61/33/120 64/28/96 63/71/95
s off
f 4/64/121 2/6/122 6/34/123 7/35/124
f 27/36/125 32/60/126 30/24/127 25/37/128
f 8/62/129 5/7/130 29/38/131 31/39/132
f 28/58/133 26/40/134 1/41/135 3/42/136
f 10/43/137 11/44/138 16/75/139 14/10/140
f 12/45/141 9/8/142 18/103/143 19/46/144
f 13/47/145 15/48/146 24/16/147 22/15/148
f 20/78/149 17/107/150 21/101/151 23/49/152
f 35/50/153 33/59/154 37/51/155 40/83/156
f 39/52/157 44/85/158 41/53/159 36/61/160
f 45/54/161 42/63/162 43/55/163 48/87/164
f 34/56/165 46/65/166 47/57/167 38/89/168
s 1
f 28/58/70 3/42/21 33/59/24 35/50/71
f 32/60/78 27/36/69 36/61/72 41/53/79
f 8/62/30 31/39/77 42/63/80 45/54/31
f 4/64/22 7/35/29 46/65/32 34/56/23
s 3
f 50/80/169 51/66/111 56/86/104 53/67/170
f 52/88/112 49/68/171 58/74/172 59/69/91
f 60/82/92 57/70/173 62/76/174 63/71/95
f 64/84/96 61/72/175 54/79/176 55/73/103
f 58/74/172 49/68/171 16/75/177 11/44/178
f 62/76/174 57/70/173 12/77/179 19/12/180
f 20/78/181 23/49/182 54/79/176 61/72/175
f 50/80/169 53/67/170 24/81/183 15/11/184
f 60/82/92 63/71/95 40/83/94 37/51/89
f 64/84/96 55/73/103 44/85/102 39/52/93
f 56/86/104 51/66/111 48/87/110 43/55/101
f 52/88/112 59/69/91 38/89/90 47/57/109
s off
f 9/8/185 10/43/186 65/91/187 66/90/188
f 10/43/189 14/10/190 67/92/191 65/91/192
f 14/10/193 13/47/194 68/93/195 67/92/196
f 13/47/197 22/15/198 69/94/199 68/93/200
f 22/15/201 21/101/202 81/111/203 80/110/204 69/94/205
f 21/101/206 17/107/207 83/109/208 81/111/209
f 17/107/210 18/103/211 70/104/212 84/105/213 83/109/214
f 18/103/215 9/8/216 66/90/217 70/104/218
f 66/90/219 65/91/220 71/96/221 72/95/222
f 65/91/223 67/92/224 73/97/225 71/96/226
f 67/92/227 68/93/228 74/98/229 73/97/230
f 68/93/231 69/94/232 75/99/233 74/98/234
f 69/94/235 80/110/236 79/108/237 76/106/238 75/99/239
f 79/108/240 82/112/241 77/102/242 76/106/243
f 70/104/244 66/90/245 72/95/246 78/100/247
f 82/112/248 84/105/249 70/104/250 78/100/251 77/102/252
f 79/108/253 81/111/254 83/109/255 82/112/256
f 79/108/257 80/110/258 81/111/259
f 82/112/260 83/109/261 84/105/262
